<svg width="20" height="20" viewBox="0 0 20 20" fill="none" xmlns="http://www.w3.org/2000/svg">
<g id="smartphone 1">
<path id="Union" fill-rule="evenodd" clip-rule="evenodd" d="M9.76635 18.9996H4.19919C3.9075 18.9997 3.6211 18.9218 3.36964 18.7739C3.11819 18.6261 2.91083 18.4137 2.76903 18.1588C2.62724 17.9039 2.55616 17.6157 2.56317 17.3241C2.57018 17.0325 2.65502 16.7481 2.8089 16.5003L3.18484 15.8942C2.31922 14.8838 1.68618 13.6956 1.33051 12.4135C0.974831 11.1315 0.905211 9.7869 1.12657 8.47496C1.42349 6.69512 2.25174 5.04668 3.50255 3.74611C4.75336 2.44553 6.36824 1.55364 8.13516 1.18753C9.49116 0.901957 10.8948 0.93302 12.2368 1.2783C13.5789 1.62359 14.8232 2.27379 15.873 3.17834C16.9228 4.08289 17.7498 5.2174 18.2897 6.49366C18.8296 7.76991 19.0678 9.1535 18.9859 10.5368C18.8164 12.8564 17.7679 15.0239 16.0545 16.5967C14.3411 18.1695 12.092 19.0289 9.76635 18.9996ZM9.99087 2.63773C9.47631 2.63804 8.96306 2.68971 8.45876 2.79195C7.01687 3.09106 5.69917 3.81933 4.67877 4.88108C3.65838 5.94283 2.983 7.2884 2.74138 8.74104C2.55844 9.81741 2.61568 10.9209 2.909 11.9726C3.20232 13.0242 3.72448 13.9981 4.43809 14.8244C4.66255 15.0907 4.79675 15.4213 4.82137 15.7687C4.84599 16.1161 4.75978 16.4623 4.57513 16.7576L4.19919 17.3632H9.76635C11.6745 17.3929 13.522 16.6931 14.9317 15.4068C16.3414 14.1205 17.207 12.3446 17.3518 10.4417C17.4125 9.43844 17.267 8.43334 16.9243 7.48843C16.5816 6.54351 16.049 5.67881 15.3593 4.94761C14.6696 4.21642 13.8375 3.63425 12.9142 3.23698C11.9909 2.83971 10.996 2.63577 9.99087 2.63773ZM10.8183 13.9878H10.0001C9.78314 13.9878 9.57503 13.9016 9.42159 13.7481C9.26815 13.5947 9.18194 13.3866 9.18194 13.1696V9.8968C8.96494 9.8968 8.75683 9.81059 8.60339 9.65715C8.44995 9.50371 8.36375 9.2956 8.36375 9.0786C8.36375 8.8616 8.44995 8.65349 8.60339 8.50005C8.75683 8.34661 8.96494 8.26041 9.18194 8.26041H10.0001C10.2171 8.26041 10.4252 8.34661 10.5787 8.50005C10.7321 8.65349 10.8183 8.8616 10.8183 9.0786V12.3514C11.0353 12.3514 11.2434 12.4376 11.3969 12.591C11.5503 12.7445 11.6365 12.9526 11.6365 13.1696C11.6365 13.3866 11.5503 13.5947 11.3969 13.7481C11.2434 13.9016 11.0353 13.9878 10.8183 13.9878ZM11.0229 6.21492C11.0229 6.77977 10.565 7.23767 10.0001 7.23767C9.43529 7.23767 8.97739 6.77977 8.97739 6.21492C8.97739 5.65008 9.43529 5.19218 10.0001 5.19218C10.565 5.19218 11.0229 5.65008 11.0229 6.21492Z" fill="#5A5A75"/>
</g>
</svg>
