    <svg width="16" height="16" viewBox="0 0 16 16" fill="none" xmlns="http://www.w3.org/2000/svg">
<g clip-path="url(#clip0_22_3044)">
<path d="M14.9653 11.409C14.9244 11.2543 14.8514 11.1098 14.7513 10.985C14.6511 10.8602 14.5258 10.7579 14.3837 10.6845L11.3982 9.13654C11.1573 9.00874 10.8785 8.97184 10.6127 9.03257C10.3469 9.09331 10.1117 9.24763 9.95014 9.46738L9.46745 10.1291C9.44265 10.1635 9.40615 10.1876 9.36482 10.1969C9.32348 10.2063 9.28016 10.2002 9.243 10.1798C8.53315 9.7756 7.88327 9.27407 7.31224 8.68977C6.72832 8.11837 6.22711 7.4681 5.82314 6.75783C5.80277 6.72065 5.79667 6.6773 5.80601 6.63594C5.81534 6.59457 5.83946 6.55805 5.87382 6.53324L6.53269 6.05025C6.75232 5.88856 6.90654 5.65327 6.96724 5.38728C7.02793 5.12129 6.99106 4.84234 6.86334 4.60129L5.32597 1.61643C5.25214 1.47397 5.14913 1.34867 5.02367 1.2487C4.89821 1.14873 4.7531 1.07634 4.59781 1.03624C4.44251 0.996135 4.28052 0.989227 4.12238 1.01596C3.96424 1.0427 3.8135 1.10248 3.67999 1.1914L1.80474 2.44717C1.54143 2.6226 1.3288 2.86419 1.18818 3.14774C1.04755 3.43128 0.983856 3.74683 1.00348 4.06276C1.02829 4.59692 1.10017 5.12785 1.21827 5.64937C1.72751 7.61513 2.95596 9.63643 4.66227 11.3462C6.36858 13.056 8.39105 14.2803 10.3556 14.7851C10.8768 14.9032 11.4074 14.9751 11.9412 15H12.0619C12.3564 14.9994 12.6463 14.9266 12.9063 14.7881C13.1663 14.6496 13.3884 14.4496 13.5534 14.2055L14.8036 12.3291C14.8938 12.1958 14.9549 12.0449 14.9827 11.8863C15.0106 11.7278 15.0047 11.5651 14.9653 11.409ZM13.9999 11.7906L12.757 13.6694C12.6745 13.7912 12.5616 13.8894 12.4296 13.9542C12.2975 14.019 12.1508 14.0482 12.004 14.0389C11.5306 14.017 11.0598 13.9548 10.5969 13.8529C8.79651 13.3844 6.93333 12.2518 5.34769 10.6579C3.76205 9.06409 2.62532 7.207 2.15711 5.40546C2.05446 4.94237 1.99148 4.47136 1.96886 3.99756C1.95921 3.85097 1.98825 3.70442 2.05306 3.5726C2.11787 3.44078 2.21617 3.32833 2.33811 3.24651L4.21337 1.99557C4.24191 1.97645 4.27555 1.96635 4.30991 1.9666H4.35576C4.37952 1.97279 4.40171 1.98396 4.42084 1.99936C4.43998 2.01476 4.45564 2.03405 4.46678 2.05595L6.01139 5.04322C6.03059 5.08027 6.03603 5.12292 6.02675 5.16361C6.01747 5.20429 5.99407 5.24036 5.96071 5.2654L5.30183 5.74838C5.07841 5.91471 4.92361 6.15716 4.86669 6.42992C4.80977 6.70268 4.85467 6.98685 4.99291 7.22874C5.43961 8.01004 5.99187 8.72597 6.63406 9.3563C7.26395 9.99893 7.97945 10.5515 8.76031 10.9985C9.00205 11.1368 9.28605 11.1817 9.55864 11.1247C9.83123 11.0678 10.0735 10.9129 10.2398 10.6893L10.7224 10.0276C10.7475 9.99427 10.7835 9.97085 10.8242 9.96157C10.8648 9.95228 10.9075 9.95773 10.9445 9.97694L13.9299 11.5225C13.9518 11.5339 13.971 11.5498 13.9863 11.5692C14.0016 11.5885 14.0127 11.6109 14.0189 11.6348C14.025 11.6587 14.0261 11.6836 14.022 11.7079C14.0179 11.7323 14.0087 11.7555 13.9951 11.7761L13.9999 11.7906Z" fill="#5A5A75" stroke="#5A5A75" stroke-width="0.4"/>
</g>
<defs>
<clipPath id="clip0_22_3044">
<rect width="16" height="16" fill="white"/>
</clipPath>
</defs>
</svg>
