<svg width="20" height="20" viewBox="0 0 20 20" fill="none" xmlns="http://www.w3.org/2000/svg">
<g clip-path="url(#clip0_22_2671)">
<path d="M12.9694 1.91797H7.03096C3.57858 1.91797 0.779976 4.81235 0.779976 8.38287C0.779976 11.9533 3.57858 14.8478 7.03096 14.8478H8.28115C9.14426 14.8478 9.8439 15.5714 9.8439 16.464V18.0801C16.3277 13.8138 19.1797 12.738 19.2199 8.47492C19.2202 8.44433 19.2204 8.41366 19.2204 8.38287C19.2204 4.81239 16.4218 1.91797 12.9694 1.91797Z" fill="white" fill-opacity="0.24"/>
<path fill-rule="evenodd" clip-rule="evenodd" d="M-0.00314331 8.38288C-0.00314331 4.36605 3.14529 1.10986 7.02921 1.10986H12.9676C16.8516 1.10986 20 4.36609 20 8.38288C20 8.4171 19.9998 8.45047 19.9995 8.4824L19.9995 8.4828C19.9885 9.646 19.7843 10.6395 19.3455 11.5384C18.9092 12.4326 18.2658 13.1817 17.4507 13.8937C16.6414 14.6006 15.6356 15.2937 14.4529 16.063C13.9628 16.3818 13.4491 16.7094 12.9029 17.0578C12.1019 17.5686 11.2309 18.1242 10.2616 18.762C10.021 18.9203 9.71609 18.9305 9.46612 18.7885C9.21614 18.6466 9.06078 18.3751 9.06078 18.0802V16.464C9.06078 16.0177 8.71097 15.6559 8.27941 15.6559H7.02921C3.14528 15.6559 -0.00314331 12.3996 -0.00314331 8.38288ZM7.02921 2.72609C4.00837 2.72609 1.5596 5.25866 1.5596 8.38288C1.5596 11.507 4.00838 14.0397 7.02921 14.0397H8.27941C9.57405 14.0397 10.6235 15.1251 10.6235 16.464V16.6165C11.1441 16.2808 11.6407 15.964 12.1087 15.6654C12.6537 15.3177 13.1601 14.9946 13.6209 14.6949C14.7977 13.9294 15.7231 13.2872 16.4423 12.6589C17.1558 12.0358 17.6382 11.45 17.9504 10.8102C18.2604 10.1751 18.4277 9.43541 18.4368 8.46705C18.4371 8.43795 18.4373 8.41012 18.4373 8.38288C18.4373 5.2587 15.9885 2.72609 12.9676 2.72609H7.02921Z" fill="white"/>
<path fill-rule="evenodd" clip-rule="evenodd" d="M6.2464 6.7671C6.2464 6.32079 6.59623 5.95898 7.02777 5.95898H12.9662C13.3977 5.95898 13.7476 6.32079 13.7476 6.7671C13.7476 7.21341 13.3977 7.57521 12.9662 7.57521H7.02777C6.59623 7.57521 6.2464 7.21341 6.2464 6.7671Z" fill="white"/>
<path fill-rule="evenodd" clip-rule="evenodd" d="M6.2464 9.99805C6.2464 9.55175 6.59623 9.18994 7.02777 9.18994H12.9662C13.3977 9.18994 13.7476 9.55175 13.7476 9.99805C13.7476 10.4444 13.3977 10.8062 12.9662 10.8062H7.02777C6.59623 10.8062 6.2464 10.4444 6.2464 9.99805Z" fill="white"/>
</g>
<defs>
<clipPath id="clip0_22_2671">
<rect width="20" height="20" fill="white"/>
</clipPath>
</defs>
</svg>
