<svg width="18" height="18" viewBox="0 0 18 18" fill="none" xmlns="http://www.w3.org/2000/svg">
<g id="strip 1" clip-path="url(#clip0_175_97)">
<path id="Union" fill-rule="evenodd" clip-rule="evenodd" d="M15.7781 4.44444C14.5508 4.44444 13.5559 3.44952 13.5559 2.22222C13.5559 0.994924 14.5508 0 15.7781 0C17.0054 0 18.0003 0.994924 18.0003 2.22222C18.0003 3.44952 17.0054 4.44444 15.7781 4.44444ZM15.7781 3.11111C15.2872 3.11111 14.8892 2.71314 14.8892 2.22222C14.8892 1.73131 15.2872 1.33333 15.7781 1.33333C16.269 1.33333 16.667 1.73131 16.667 2.22222C16.667 2.71314 16.269 3.11111 15.7781 3.11111ZM11.3333 2C11.7015 2 12 1.70152 12 1.33333C12 0.965147 11.7015 0.666667 11.3333 0.666667H8.62649C6.99396 0.666658 5.71432 0.666658 4.69909 0.776649C3.66306 0.888898 2.82361 1.12206 2.10688 1.6428C1.67297 1.95805 1.29139 2.33964 0.976134 2.77354C0.455396 3.49028 0.222231 4.32972 0.109982 5.36576C-8.62821e-06 6.38099 -8.57765e-06 7.66062 1.5354e-07 9.29316V9.37351C-8.57765e-06 11.006 -8.62821e-06 12.2857 0.109982 13.3009C0.222231 14.337 0.455396 15.1764 0.976134 15.8932C1.29139 16.327 1.67297 16.7086 2.10687 17.0238C2.82361 17.5446 3.66306 17.7778 4.69909 17.89C5.7143 18 6.99396 18 8.6264 18H8.70693C10.3394 18 11.619 18 12.6342 17.89C13.6703 17.7778 14.5097 17.5446 15.2265 17.0238C15.6604 16.7086 16.042 16.327 16.3572 15.8932C16.878 15.1764 17.1111 14.337 17.2234 13.3009C17.3333 12.2857 17.3333 11.006 17.3333 9.3736V6.66667C17.3333 6.29848 17.0348 6 16.6667 6C16.2985 6 16 6.29848 16 6.66667V9.33333C16 11.0148 15.9991 12.2222 15.8978 13.1573C15.7978 14.0799 15.6066 14.6579 15.2785 15.1094C15.0455 15.4301 14.7635 15.7122 14.4428 15.9452C13.9912 16.2732 13.4132 16.4644 12.4907 16.5644C11.5556 16.6658 10.3481 16.6667 8.66667 16.6667C6.98524 16.6667 5.77777 16.6658 4.8427 16.5644C3.92012 16.4644 3.34215 16.2732 2.89059 15.9452C2.56988 15.7122 2.28784 15.4301 2.05483 15.1094C1.72675 14.6579 1.53551 14.0799 1.43556 13.1573C1.33425 12.2222 1.33333 11.0148 1.33333 9.33333C1.33333 7.65191 1.33425 6.44444 1.43556 5.50938C1.53551 4.58678 1.72675 4.00882 2.05483 3.55725C2.28784 3.23654 2.56988 2.95451 2.89059 2.72149C3.34215 2.39341 3.92012 2.20218 4.84271 2.10222C5.77777 2.00092 6.98524 2 8.66667 2H11.3333ZM3.62415 11.5794C3.462 11.91 3.59853 12.3095 3.92909 12.4716C4.25965 12.6337 4.65907 12.4972 4.82122 12.1666L6.1193 9.52041C6.52164 8.70014 7.7042 8.74023 8.05007 9.58583C8.83158 11.4961 11.503 11.5865 12.412 9.73357L13.7102 7.08731C13.8723 6.75674 13.7358 6.35732 13.4052 6.19518C13.0746 6.03303 12.6752 6.16955 12.513 6.50011L11.215 9.14637C10.8126 9.96663 9.63006 9.92655 9.2842 9.08095C8.50269 7.1707 5.83118 7.08021 4.92222 8.93321L3.62415 11.5794Z" fill="#0D247D"/>
</g>
<defs>
<clipPath id="clip0_175_97">
<rect width="18" height="18" fill="white"/>
</clipPath>
</defs>
</svg>
