<svg width="20" height="20" viewBox="0 0 20 20" fill="none" xmlns="http://www.w3.org/2000/svg">
<g id="smartphone 1">
<path id="Vector" d="M16.3836 3.62594C12.8802 0.124688 7.13097 0.124688 3.62756 3.62594C0.124147 7.12718 0.124147 12.8728 3.62756 16.3741C7.13097 19.8753 12.7903 19.8753 16.2937 16.3741C19.887 12.8728 19.887 7.12718 16.3836 3.62594ZM4.88519 4.88279C7.49029 2.2793 11.5327 2.09975 14.4073 4.25436L4.34621 14.399C2.10043 11.616 2.36992 7.48628 4.88519 4.88279ZM5.60384 15.6559L15.6649 5.601C17.8209 8.38404 17.6412 12.5137 15.0361 15.1172C12.431 17.7207 8.3886 17.9002 5.60384 15.6559Z" fill="#5A5A75"/>
</g>
</svg>
