<svg width="20" height="20" viewBox="0 0 20 20" fill="none" xmlns="http://www.w3.org/2000/svg">
<path fill-rule="evenodd" clip-rule="evenodd" d="M14.6864 3.05164C14.8757 2.86238 15.1324 2.75605 15.4 2.75605C15.5325 2.75605 15.6638 2.78216 15.7862 2.83287C15.9087 2.88359 16.0199 2.95793 16.1136 3.05164C16.2073 3.14535 16.2817 3.2566 16.3324 3.37904C16.3831 3.50148 16.4092 3.63271 16.4092 3.76524C16.4092 3.89777 16.3831 4.029 16.3324 4.15144C16.2817 4.27388 16.2073 4.38513 16.1136 4.47885L5.03989 15.5526L3.13695 16.0283L3.61269 14.1254L14.6864 3.05164ZM15.4 0.956055C14.655 0.956055 13.9404 1.25202 13.4136 1.77885L2.16362 13.0288C2.04828 13.1442 1.96645 13.2887 1.92689 13.447L1.02689 17.047C0.950216 17.3537 1.04008 17.6781 1.26362 17.9016C1.48717 18.1252 1.8116 18.215 2.1183 18.1384L5.7183 17.2384C5.87655 17.1988 6.02107 17.117 6.13641 17.0016L17.3864 5.75164C17.6473 5.49078 17.8542 5.1811 17.9954 4.84027C18.1365 4.49945 18.2092 4.13415 18.2092 3.76524C18.2092 3.39633 18.1365 3.03104 17.9954 2.69021C17.8542 2.34939 17.6473 2.0397 17.3864 1.77885C17.1256 1.51799 16.8159 1.31107 16.475 1.16989C16.1342 1.02872 15.7689 0.956055 15.4 0.956055ZM10 16.365C9.50294 16.365 9.1 16.768 9.1 17.265C9.1 17.7621 9.50294 18.165 10 18.165H18.1C18.5971 18.165 19 17.7621 19 17.265C19 16.768 18.5971 16.365 18.1 16.365H10Z" fill="#262641"/>
</svg>
