<svg width="20" height="20" viewBox="0 0 20 20" fill="none" xmlns="http://www.w3.org/2000/svg">
<path fill-rule="evenodd" clip-rule="evenodd" d="M14.1637 3.9464C14.332 3.77037 14.5602 3.67148 14.7981 3.67148C14.916 3.67148 15.0326 3.69575 15.1415 3.74293C15.2504 3.7901 15.3493 3.85924 15.4326 3.9464C15.5159 4.03356 15.582 4.13703 15.6271 4.25091C15.6722 4.36479 15.6954 4.48685 15.6954 4.61011C15.6954 4.73338 15.6722 4.85543 15.6271 4.96931C15.582 5.08319 15.5159 5.18667 15.4326 5.27383L5.58715 15.5734L3.89528 16.0159L4.31825 14.246L14.1637 3.9464ZM14.7981 1.99731C14.1357 1.99731 13.5005 2.27259 13.0321 2.76259L3.02992 13.2261C2.92737 13.3334 2.85462 13.4678 2.81944 13.615L2.01927 16.9633C1.9511 17.2486 2.031 17.5503 2.22974 17.7582C2.42849 17.9661 2.71694 18.0497 2.98962 17.9784L6.19031 17.1413C6.33101 17.1045 6.4595 17.0284 6.56205 16.9212L16.5642 6.45764C16.7961 6.21502 16.9801 5.92699 17.1056 5.60999C17.2311 5.29299 17.2957 4.95323 17.2957 4.61011C17.2957 4.26699 17.2311 3.92724 17.1056 3.61024C16.9801 3.29324 16.7961 3.00521 16.5642 2.76259C16.3323 2.51996 16.057 2.32751 15.7539 2.1962C15.4509 2.0649 15.1261 1.99731 14.7981 1.99731ZM9.99953 16.3287C9.55761 16.3287 9.19936 16.7035 9.19936 17.1658C9.19936 17.6281 9.55761 18.0029 9.99953 18.0029H17.2011C17.643 18.0029 18.0013 17.6281 18.0013 17.1658C18.0013 16.7035 17.643 16.3287 17.2011 16.3287H9.99953Z" fill="#0D247D"/>
</svg>
