<svg width="375" height="802" viewBox="0 0 375 802" fill="none" xmlns="http://www.w3.org/2000/svg">
<g filter="url(#filter0_d_22_8679)">
<rect x="20" y="25" width="335" height="752" rx="16" fill="white"/>
</g>
<path d="M190 25H339C347.837 25 355 32.1634 355 41V190H272.5C226.937 190 190 153.063 190 107.5V25Z" fill="url(#paint0_linear_22_8679)"/>
<path d="M200 261L51 261C42.1635 261 35 253.837 35 245L35 96L117.5 96C163.064 96 200 132.937 200 178.5L200 261Z" fill="url(#paint1_linear_22_8679)"/>
<path d="M177 274H324C333.941 274 342 282.059 342 292V439H259.5C213.937 439 177 402.063 177 356.5V274Z" fill="url(#paint2_linear_22_8679)"/>
<path d="M185 777L36 777C27.1635 777 20 769.836 20 761L20 612L102.5 612C148.064 612 185 648.936 185 694.5L185 777Z" fill="url(#paint3_linear_22_8679)"/>
<path fill-rule="evenodd" clip-rule="evenodd" d="M337.461 32.0157H37.5393C31.7273 32.0157 27.0157 36.7273 27.0157 42.5393V759.895C27.0157 765.707 31.7273 770.419 37.5393 770.419H337.461C343.273 770.419 347.984 765.707 347.984 759.895V42.5393C347.984 36.7273 343.273 32.0157 337.461 32.0157ZM37.5393 25C27.8526 25 20 32.8526 20 42.5393V759.895C20 769.582 27.8526 777.435 37.5393 777.435H337.461C347.147 777.435 355 769.582 355 759.895V42.5393C355 32.8526 347.147 25 337.461 25H37.5393Z" fill="#3A3A71"/>
<path fill-rule="evenodd" clip-rule="evenodd" d="M325.184 44.2935H49.8178C43.0372 44.2935 37.5403 49.7903 37.5403 56.571V245.995C37.5403 252.776 43.0372 258.273 49.8178 258.273H325.184C331.965 258.273 337.462 252.776 337.462 245.995V56.571C337.462 49.7903 331.965 44.2935 325.184 44.2935ZM49.8178 39.0317C40.1312 39.0317 32.2786 46.8843 32.2786 56.571V245.995C32.2786 255.682 40.1312 263.534 49.8178 263.534H325.184C334.871 263.534 342.724 255.682 342.724 245.995V56.571C342.724 46.8843 334.871 39.0317 325.184 39.0317H49.8178Z" fill="#3A3A71"/>
<path fill-rule="evenodd" clip-rule="evenodd" d="M325.184 279.321H49.8178C43.0372 279.321 37.5403 284.818 37.5403 291.598V742.818C37.5403 749.599 43.0372 755.096 49.8178 755.096H325.184C331.965 755.096 337.462 749.599 337.462 742.818V291.598C337.462 284.818 331.965 279.321 325.184 279.321ZM49.8178 274.059C40.1312 274.059 32.2786 281.912 32.2786 291.598V742.818C32.2786 752.505 40.1312 760.358 49.8178 760.358H325.184C334.871 760.358 342.724 752.505 342.724 742.818V291.598C342.724 281.912 334.871 274.059 325.184 274.059H49.8178Z" fill="#3A3A71"/>
<path fill-rule="evenodd" clip-rule="evenodd" d="M328 123C329.657 123 331 125.719 331 129.073V199.927C331 203.281 329.657 206 328 206C326.343 206 325 203.281 325 199.927V129.073C325 125.719 326.343 123 328 123Z" fill="#3A3A71"/>
<path fill-rule="evenodd" clip-rule="evenodd" d="M328.631 378C330.084 378 331.262 379.178 331.262 380.631V482.359C331.262 483.812 330.084 484.99 328.631 484.99C327.178 484.99 326 483.812 326 482.359V380.631C326 379.178 327.178 378 328.631 378Z" fill="#3A3A71"/>
<path fill-rule="evenodd" clip-rule="evenodd" d="M169.961 247.749C169.961 249.202 168.783 250.38 167.33 250.38H72.6183C71.1653 250.38 69.9874 249.202 69.9874 247.749C69.9874 246.296 71.1653 245.118 72.6183 245.118H167.33C168.783 245.118 169.961 246.296 169.961 247.749Z" fill="#3A3A71"/>
<path fill-rule="evenodd" clip-rule="evenodd" d="M169.961 744.326C169.961 745.779 168.783 746.957 167.33 746.957H72.618C71.165 746.957 69.9871 745.779 69.9871 744.326C69.9871 742.873 71.165 741.695 72.618 741.695H167.33C168.783 741.695 169.961 742.873 169.961 744.326Z" fill="#3A3A71"/>
<path fill-rule="evenodd" clip-rule="evenodd" d="M198.025 247.749C198.025 249.202 196.847 250.38 195.394 250.38H181.363C179.91 250.38 178.732 249.202 178.732 247.749C178.732 246.296 179.91 245.118 181.363 245.118H195.394C196.847 245.118 198.025 246.296 198.025 247.749Z" fill="#3A3A71"/>
<path fill-rule="evenodd" clip-rule="evenodd" d="M198.025 744.326C198.025 745.779 196.848 746.957 195.395 746.957H181.363C179.911 746.957 178.733 745.779 178.733 744.326C178.733 742.873 179.911 741.695 181.363 741.695H195.395C196.848 741.695 198.025 742.873 198.025 744.326Z" fill="#3A3A71"/>
<path d="M58.5874 775.689C58.5874 782.464 52.3055 787.957 44.5564 787.957C36.8072 787.957 30.5253 782.464 30.5253 775.689C34.91 775.689 35.9303 775.684 43.6794 775.684C51.4286 775.684 53.3258 775.672 58.5874 775.689Z" fill="#3A3A71"/>
<path d="M346.229 775.689C346.229 782.464 339.947 787.957 332.198 787.957C324.449 787.957 318.167 782.464 318.167 775.689C322.552 775.689 323.572 775.684 331.321 775.684C339.071 775.684 340.968 775.672 346.229 775.689Z" fill="#3A3A71"/>
<defs>
<filter id="filter0_d_22_8679" x="-5" y="0" width="385" height="802" filterUnits="userSpaceOnUse" color-interpolation-filters="sRGB">
<feFlood flood-opacity="0" result="BackgroundImageFix"/>
<feColorMatrix in="SourceAlpha" type="matrix" values="0 0 0 0 0 0 0 0 0 0 0 0 0 0 0 0 0 0 127 0" result="hardAlpha"/>
<feOffset/>
<feGaussianBlur stdDeviation="12.5"/>
<feComposite in2="hardAlpha" operator="out"/>
<feColorMatrix type="matrix" values="0 0 0 0 0.0509804 0 0 0 0 0.0688458 0 0 0 0 0.490196 0 0 0 0.35 0"/>
<feBlend mode="normal" in2="BackgroundImageFix" result="effect1_dropShadow_22_8679"/>
<feBlend mode="normal" in="SourceGraphic" in2="effect1_dropShadow_22_8679" result="shape"/>
</filter>
<linearGradient id="paint0_linear_22_8679" x1="355" y1="25" x2="245.5" y2="134.5" gradientUnits="userSpaceOnUse">
<stop stop-color="#0D247D"/>
<stop offset="1" stop-color="white" stop-opacity="0"/>
</linearGradient>
<linearGradient id="paint1_linear_22_8679" x1="35" y1="261" x2="144.5" y2="151.5" gradientUnits="userSpaceOnUse">
<stop stop-color="#0D247D"/>
<stop offset="1" stop-color="white" stop-opacity="0"/>
</linearGradient>
<linearGradient id="paint2_linear_22_8679" x1="342" y1="274" x2="232.5" y2="383.5" gradientUnits="userSpaceOnUse">
<stop stop-color="#0D247D"/>
<stop offset="1" stop-color="white" stop-opacity="0"/>
</linearGradient>
<linearGradient id="paint3_linear_22_8679" x1="20" y1="777" x2="129.5" y2="667.5" gradientUnits="userSpaceOnUse">
<stop stop-color="#0D247D"/>
<stop offset="1" stop-color="white" stop-opacity="0"/>
</linearGradient>
</defs>
</svg>
