<svg width="18" height="18" viewBox="0 0 18 18" fill="none" xmlns="http://www.w3.org/2000/svg">
<g id="strip 1">
<path id="Union" fill-rule="evenodd" clip-rule="evenodd" d="M13.125 6.75V1.125H4.125V6.75H13.125ZM3 7.3125V1.125C3 0.504562 3.50456 0 4.125 0H13.125C13.7454 0 14.25 0.504562 14.25 1.125V7.3125V15.75C14.25 16.3704 13.7454 16.875 13.125 16.875V17.4375C13.125 17.7481 12.8731 18 12.5625 18C12.2519 18 12 17.7481 12 17.4375V16.875H5.25V17.4375C5.25 17.7481 4.99811 18 4.6875 18C4.37689 18 4.125 17.7481 4.125 17.4375V16.875C3.50456 16.875 3 16.3704 3 15.75V7.3125ZM12.5625 15.75H13.1258L13.125 7.875H4.125V15.75H4.6875H12.5625ZM5.8125 5.625C5.50189 5.625 5.25 5.37311 5.25 5.0625V2.8125C5.25 2.50189 5.50189 2.25 5.8125 2.25C6.12311 2.25 6.375 2.50189 6.375 2.8125V5.0625C6.375 5.37311 6.12311 5.625 5.8125 5.625ZM5.25 12.9375C5.25 13.2481 5.50189 13.5 5.8125 13.5C6.12311 13.5 6.375 13.2481 6.375 12.9375V9.5625C6.375 9.25189 6.12311 9 5.8125 9C5.50189 9 5.25 9.25189 5.25 9.5625V12.9375Z" fill="#0D247D"/>
</g>
</svg>
