<svg width="20" height="20" viewBox="0 0 20 20" fill="none" xmlns="http://www.w3.org/2000/svg">
<path d="M17.612 3.41452C17.1722 2.96607 16.65 2.61034 16.0752 2.36763C15.5005 2.12492 14.8844 2 14.2623 2C13.6401 2 13.0241 2.12492 12.4493 2.36763C11.8746 2.61034 11.3524 2.96607 10.9126 3.41452L9.99977 4.34476L9.08699 3.41452C8.19858 2.50912 6.99364 2.00047 5.73725 2.00047C4.48085 2.00047 3.27591 2.50912 2.38751 3.41452C1.4991 4.31992 1 5.5479 1 6.82833C1 8.10875 1.4991 9.33674 2.38751 10.2421L3.30029 11.1724L9.99977 18L16.6992 11.1724L17.612 10.2421C18.0521 9.79391 18.4011 9.26171 18.6393 8.67596C18.8774 8.0902 19 7.46237 19 6.82833C19 6.19428 18.8774 5.56645 18.6393 4.9807C18.4011 4.39494 18.0521 3.86275 17.612 3.41452Z" fill="white" fill-opacity="0.1"/>
<path fill-rule="evenodd" clip-rule="evenodd" d="M12.0603 1.4464C12.7578 1.15186 13.5061 1 14.2623 1C15.0185 1 15.7668 1.15186 16.4643 1.4464C17.1617 1.74092 17.7942 2.17208 18.326 2.71431C18.8578 3.25617 19.2788 3.89847 19.5656 4.60406C19.8526 5.30976 20 6.06552 20 6.82833C20 7.59113 19.8526 8.34689 19.5656 9.05259C19.2787 9.75825 18.8577 10.4006 18.3258 10.9425C18.3258 10.9426 18.3259 10.9425 18.3258 10.9425L10.7135 18.7004C10.5255 18.892 10.2683 19 9.99977 19C9.73127 19 9.47405 18.892 9.286 18.7004L1.67373 10.9425C0.599945 9.84819 0 8.36792 0 6.82833C0 5.28873 0.599945 3.80847 1.67373 2.71414C2.74815 1.61917 4.20946 1.00047 5.73725 1.00047C7.26504 1.00047 8.72634 1.61917 9.80076 2.71414L9.99977 2.91696L10.1986 2.71431C10.1986 2.71436 10.1987 2.71425 10.1986 2.71431C10.7304 2.17216 11.3629 1.74089 12.0603 1.4464ZM14.2623 3C13.7742 3 13.2904 3.09799 12.8384 3.28886C12.3863 3.47975 11.9743 3.76006 11.6265 4.11473L10.7135 5.04513C10.5255 5.23678 10.2683 5.34476 9.99977 5.34476C9.73127 5.34476 9.47405 5.23678 9.286 5.04513L8.37321 4.11489C7.67082 3.39907 6.72225 3.00047 5.73725 3.00047C4.75225 3.00047 3.80367 3.39907 3.10128 4.11489C2.39826 4.83136 2 5.80707 2 6.82833C2 7.84959 2.39826 8.82529 3.10128 9.54176L9.99977 16.5722L16.8983 9.54176C17.2463 9.18723 17.5235 8.7651 17.7129 8.29932C17.9023 7.83352 18 7.33361 18 6.82833C18 6.32304 17.9023 5.82314 17.7129 5.35733C17.5235 4.89156 17.2465 4.46959 16.8984 4.11506C16.5506 3.7604 16.1383 3.47975 15.6862 3.28886C15.2342 3.09799 14.7504 3 14.2623 3Z" fill="white"/>
</svg>
