<svg width="16" height="16" viewBox="0 0 16 16" fill="none" xmlns="http://www.w3.org/2000/svg">
<g clip-path="url(#clip0_22_3038)">
<path fill-rule="evenodd" clip-rule="evenodd" d="M7.99975 10.1815C7.92412 10.1815 7.8463 10.1691 7.76994 10.1437C6.79833 9.82006 5.88054 9.38153 5.03548 8.84627C4.33296 9.34516 3.47698 9.78879 2.41156 10.1437C2.3352 10.1691 2.25738 10.1815 2.18175 10.1815C1.87703 10.1815 1.5934 9.98878 1.49232 9.68552C1.36505 9.30371 1.57086 8.89209 1.95194 8.76554C2.67119 8.52555 3.27626 8.24411 3.79115 7.93066C2.93736 7.22086 2.18466 6.40634 1.57741 5.4951C1.35487 5.16057 1.44505 4.70967 1.77885 4.48641C2.11339 4.26387 2.56428 4.35332 2.78755 4.68785C3.37299 5.56637 4.1126 6.34598 4.9613 7.00924C6.10817 5.83691 6.45362 4.39477 6.52634 2.909H0.72725C0.325808 2.909 0 2.58392 0 2.18175C0 1.77958 0.325808 1.4545 0.72725 1.4545H4.3635V0.72725C4.3635 0.325081 4.68931 0 5.09075 0C5.49219 0 5.818 0.325081 5.818 0.72725V1.4545H9.45425C9.85642 1.4545 10.1815 1.77958 10.1815 2.18175C10.1815 2.58392 9.85642 2.909 9.45425 2.909H7.98157C7.90666 4.56277 7.52486 6.34889 6.18453 7.83321C6.82742 8.20556 7.50958 8.5241 8.23029 8.76409C8.61137 8.89063 8.81645 9.30298 8.68991 9.68406C8.5881 9.98878 8.30447 10.1815 7.99975 10.1815ZM12.2877 7.67449L15.924 14.947C16.1036 15.3063 15.9574 15.7426 15.5996 15.9237C15.4956 15.9753 15.3843 16 15.2753 16C15.0076 16 14.7516 15.8531 14.6236 15.5979L13.7335 13.8183H9.54162L8.65146 15.5979C8.47183 15.9564 8.03621 16.1011 7.67549 15.923C7.31623 15.7433 7.17078 15.3063 7.35041 14.947L10.9867 7.67449C11.2339 7.18142 12.0404 7.18142 12.2877 7.67449ZM11.6368 9.6257L10.2681 12.3631H13.0055L11.6368 9.6257Z" fill="#5A5A75"/>
</g>
<defs>
<clipPath id="clip0_22_3038">
<rect width="16" height="16" fill="white"/>
</clipPath>
</defs>
</svg>
