<svg width="20" height="20" viewBox="0 0 20 20" fill="none" xmlns="http://www.w3.org/2000/svg">
<g id="smartphone 1">
<path id="Vector" fill-rule="evenodd" clip-rule="evenodd" d="M3.42261 3.48951C6.12974 0.70749 10.2444 0.258003 13.4073 2.13673C13.8468 2.39776 13.9971 2.97546 13.7431 3.42706C13.4891 3.87866 12.927 4.03314 12.4876 3.77212C10.0269 2.31059 6.82625 2.66305 4.72232 4.82518C2.20998 7.40701 2.20998 11.593 4.72232 14.1749C6.82625 16.3369 10.0269 16.6894 12.4876 15.2278C12.927 14.9669 13.4891 15.1213 13.7431 15.573C13.9971 16.0246 13.8468 16.6022 13.4073 16.8633C10.2444 18.742 6.12974 18.2925 3.42261 15.5105C0.192463 12.191 0.192463 6.80901 3.42261 3.48951ZM15.0547 5.9988C15.4136 5.62996 15.9955 5.62996 16.3544 5.9988L18.0925 7.78495C18.2565 7.95353 18.4163 8.11759 18.5405 8.26794C18.6769 8.43313 18.8236 8.64271 18.91 8.91631C19.03 9.2957 19.03 9.70437 18.91 10.0837C18.8236 10.3574 18.6769 10.5669 18.5405 10.732C18.4163 10.8824 18.2565 11.0465 18.0925 11.215L16.3544 13.0012C15.9955 13.37 15.4136 13.37 15.0547 13.0012C14.6958 12.6324 14.6958 12.0343 15.0547 11.6655L16.2429 10.4444H9.27131C8.76373 10.4444 8.35227 10.0216 8.35227 9.49999C8.35227 8.97837 8.76373 8.55553 9.27131 8.55553H16.2429L15.0547 7.33446C14.6958 6.96563 14.6958 6.36763 15.0547 5.9988Z" fill="#5A5A75"/>
</g>
</svg>
