<svg width="16" height="16" viewBox="0 0 16 16" fill="none" xmlns="http://www.w3.org/2000/svg">
<path fill-rule="evenodd" clip-rule="evenodd" d="M7.62688 9.53679C7.84828 9.70147 8.1515 9.70147 8.3729 9.53679L14.7498 4.7936V3.87497C14.7498 3.52981 14.47 3.24998 14.1248 3.24998H1.87497C1.52981 3.24998 1.24998 3.52981 1.24998 3.87497V4.7936L7.62688 9.53679ZM15.9998 5.4217L9.11892 10.5397C8.45471 11.0338 7.54507 11.0338 6.88086 10.5397L0 5.4217V3.87497C0 2.83947 0.839467 2 1.87497 2H14.1248C15.1603 2 15.9998 2.83947 15.9998 3.87497V5.4217ZM14.7498 13.1247V7.90911L15.9998 6.97937V13.1247C15.9998 14.1586 15.1587 14.9997 14.1248 14.9997H1.87497C0.841114 14.9997 0 14.1586 0 13.1247V6.97937L1.24998 7.90911V13.1247C1.24998 13.4693 1.53035 13.7497 1.87497 13.7497H14.1248C14.4694 13.7497 14.7498 13.4693 14.7498 13.1247Z" fill="#5A5A75"/>
</svg>
