<svg width="20" height="20" viewBox="0 0 20 20" fill="none" xmlns="http://www.w3.org/2000/svg">
<g id="smartphone 1">
<path id="Union" fill-rule="evenodd" clip-rule="evenodd" d="M15.3282 7.98723L15.3284 7.99704V12.4958C15.3285 12.5053 15.3288 12.5147 15.3293 12.5241V13.3978C15.327 14.1742 15.0175 14.9182 14.4684 15.4673C13.9194 16.0163 13.1754 16.3258 12.3989 16.3282H11.1203C11.0436 16.1663 10.9392 16.0172 10.8101 15.8881C10.5142 15.5922 10.1129 15.4259 9.69437 15.4259H8.7927C8.37421 15.4259 7.97285 15.5922 7.67694 15.8881C7.38102 16.184 7.21477 16.5853 7.21477 17.0038C7.21477 17.4223 7.38102 17.8237 7.67694 18.1196C7.97285 18.4155 8.37421 18.5818 8.7927 18.5818H9.69437C10.1129 18.5818 10.5142 18.4155 10.8101 18.1196C10.9389 17.9908 11.0431 17.8421 11.1197 17.6807H12.3989C13.5348 17.6807 14.6242 17.2295 15.4274 16.4263C16.2306 15.6231 16.6819 14.5337 16.6819 13.3978V13.1721H16.9063C17.564 13.1721 18.1946 12.9109 18.6597 12.4458C19.1247 11.9808 19.3859 11.3501 19.3859 10.6925V8.88916C19.3859 8.23153 19.1247 7.60083 18.6597 7.13582C18.1946 6.6708 17.564 6.40956 16.9063 6.40956H16.5003C16.2074 5.14599 15.5659 3.97793 14.634 3.04599C13.3235 1.7355 11.5461 0.999268 9.69275 0.999268C7.83942 0.999268 6.06201 1.7355 4.75151 3.04599C3.81958 3.97793 3.17805 5.14599 2.88519 6.40956H2.47984C1.82221 6.40956 1.19152 6.6708 0.726502 7.13582C0.261487 7.60083 0.000244141 8.23153 0.000244141 8.88916V10.6925C0.000244141 11.3501 0.261487 11.9808 0.726502 12.4458C1.19152 12.9109 1.82221 13.1721 2.47984 13.1721C2.8976 13.1697 3.29758 13.0027 3.59299 12.7073C3.8884 12.4119 4.0554 12.0119 4.05777 11.5942V7.91402C4.07682 6.44587 4.6683 5.04195 5.70788 4.00236C6.76473 2.94551 8.19813 2.35178 9.69275 2.35178C11.1874 2.35178 12.6208 2.94551 13.6776 4.00236C14.7345 5.05921 15.3282 6.49261 15.3282 7.98723ZM9.91944 16.9913L9.91931 17.0045L9.91942 17.0167C9.91628 17.0718 9.89301 17.124 9.85377 17.1632C9.81149 17.2055 9.75416 17.2293 9.69437 17.2293H8.7927C8.73291 17.2293 8.67558 17.2055 8.6333 17.1632C8.59103 17.121 8.56728 17.0636 8.56728 17.0038C8.56728 16.944 8.59103 16.8867 8.6333 16.8444C8.67558 16.8022 8.73291 16.7784 8.7927 16.7784H9.69437C9.75416 16.7784 9.81149 16.8022 9.85377 16.8444C9.89308 16.8838 9.91637 16.9361 9.91944 16.9913ZM2.70526 7.76207V7.9057C2.70494 7.93286 2.70479 7.96004 2.70479 7.98723C2.70479 7.9957 2.70494 8.00415 2.70526 8.01258V11.5942C2.70526 11.654 2.68151 11.7113 2.63924 11.7536C2.59696 11.7958 2.53963 11.8196 2.47984 11.8196C2.18092 11.8196 1.89424 11.7008 1.68287 11.4895C1.4715 11.2781 1.35275 10.9914 1.35275 10.6925V8.88916C1.35275 8.59023 1.4715 8.30356 1.68287 8.09218C1.89424 7.88081 2.18092 7.76207 2.47984 7.76207H2.70526ZM16.9063 11.8196H16.6809V7.76207H16.9063C17.2052 7.76207 17.4919 7.88081 17.7033 8.09218C17.9147 8.30356 18.0334 8.59023 18.0334 8.88916V10.6925C18.0334 10.9914 17.9147 11.2781 17.7033 11.4895C17.4919 11.7008 17.2052 11.8196 16.9063 11.8196ZM9.69302 13.3968C8.99997 13.4353 8.31861 13.206 7.78993 12.7562C7.26126 12.3064 6.92572 11.6706 6.85276 10.9803C6.84447 10.8915 6.85375 10.8019 6.88008 10.7167C6.9064 10.6315 6.94926 10.5523 7.00619 10.4836C7.06313 10.415 7.13303 10.3582 7.21191 10.3165C7.29078 10.2749 7.37708 10.2492 7.46589 10.2409C7.5547 10.2326 7.64427 10.2419 7.72949 10.2682C7.81471 10.2946 7.89391 10.3374 7.96256 10.3944C8.03122 10.4513 8.08799 10.5212 8.12963 10.6001C8.17128 10.6789 8.19697 10.7652 8.20526 10.854C8.25047 11.2066 8.43092 11.5279 8.7085 11.75C8.98609 11.972 9.3391 12.0775 9.69302 12.0443C10.0469 12.0775 10.4 11.972 10.6775 11.75C10.9551 11.5279 11.1356 11.2066 11.1808 10.854C11.1891 10.7652 11.2148 10.6789 11.2564 10.6001C11.2981 10.5212 11.3548 10.4513 11.4235 10.3944C11.4921 10.3374 11.5713 10.2946 11.6566 10.2682C11.7418 10.2419 11.8313 10.2326 11.9202 10.2409C12.009 10.2492 12.0953 10.2749 12.1741 10.3165C12.253 10.3582 12.3229 10.415 12.3799 10.4836C12.4368 10.5523 12.4796 10.6315 12.506 10.7167C12.5323 10.8019 12.5416 10.8915 12.5333 10.9803C12.4603 11.6706 12.1248 12.3064 11.5961 12.7562C11.0674 13.206 10.3861 13.4353 9.69302 13.3968ZM7.88925 7.98692C8.38723 7.98692 8.79093 7.58323 8.79093 7.08525C8.79093 6.58727 8.38723 6.18358 7.88925 6.18358C7.39127 6.18358 6.98758 6.58727 6.98758 7.08525C6.98758 7.58323 7.39127 7.98692 7.88925 7.98692ZM12.3994 7.08525C12.3994 7.58323 11.9957 7.98692 11.4977 7.98692C10.9997 7.98692 10.5961 7.58323 10.5961 7.08525C10.5961 6.58727 10.9997 6.18358 11.4977 6.18358C11.9957 6.18358 12.3994 6.58727 12.3994 7.08525Z" fill="#5A5A75"/>
</g>
</svg>
