<svg width="22" height="22" viewBox="0 0 22 22" fill="none" xmlns="http://www.w3.org/2000/svg">
<g id="my_location_black_24dp-(2)" clip-path="url(#clip0_22_3389)">
<path id="Vector" d="M16.193 11.2834C15.6951 10.6488 15.0606 10.17 14.3561 9.82673C14.0013 9.6565 13.6289 9.51602 13.2062 9.42814C13.0412 9.39423 12.885 9.37555 12.7338 9.36586L12.6893 7.4746C12.6893 7.42547 12.6893 7.37564 12.6893 7.3272C12.7499 7.29122 12.8112 7.25523 12.8711 7.21925C13.4771 6.85318 14.0531 6.47326 14.6204 6.01792C15.1818 5.56189 15.744 5.04496 16.1675 4.31282C16.5836 3.57029 16.7603 2.69075 16.4916 1.77384C16.2375 0.870076 15.3206 0.0279024 14.1838 0.00160607C13.626 -0.0198462 13.066 0.1753 12.6608 0.48532C12.4542 0.639637 12.2848 0.814023 12.1461 1.00294C12.0454 1.1448 11.9585 1.23684 11.8468 1.41884C11.3832 2.12538 11.1685 2.84022 11.0641 3.55853C10.9641 4.26714 10.9619 4.94393 10.9926 5.59303L11.0079 5.96118C10.1172 6.4359 9.17393 6.92653 8.27373 7.52442C7.68455 7.91333 7.09975 8.34791 6.56387 8.88837C6.0309 9.4226 5.5432 10.0835 5.26431 10.8627C4.98541 11.6439 4.92555 12.4771 5.09274 13.2729C5.22853 13.9961 5.53444 14.7462 5.98052 15.396C6.87707 16.7288 8.37084 17.5835 9.88504 17.9128C10.3895 18.0153 10.9013 18.0762 11.416 18.0872L11.4431 18.9405C11.4445 18.9695 11.446 19.0021 11.4504 19.0318C11.4606 19.1038 11.4701 19.2387 11.4701 19.3418C11.4708 19.4533 11.4664 19.564 11.4547 19.6712C11.4328 19.8851 11.3817 20.0795 11.3109 20.2228C11.2372 20.3674 11.159 20.4401 11.0685 20.4927C11.0203 20.5155 10.9605 20.5349 10.8889 20.548C10.8502 20.5515 10.8137 20.5605 10.7677 20.5605C10.7626 20.5605 10.7232 20.5619 10.7217 20.5619L10.6283 20.557L10.5239 20.5501L10.4735 20.5376C10.4428 20.5335 10.4034 20.5252 10.3538 20.512C10.2632 20.492 10.1742 20.4587 10.0953 20.4186C9.93469 20.3439 9.80546 20.2373 9.73172 20.1349C9.65725 20.0304 9.62951 19.9335 9.63535 19.8145C9.639 19.755 9.6463 19.6885 9.67843 19.6159C9.69668 19.5439 9.74998 19.4643 9.78721 19.3847L9.83905 19.2761C10.0092 18.9142 9.84854 18.4844 9.46962 18.3094C9.08121 18.1281 8.61323 18.2796 8.42194 18.6471C8.33506 18.8138 8.2438 18.9723 8.18685 19.1661C8.12042 19.3467 8.08245 19.5564 8.07734 19.7674C8.05909 20.1916 8.20949 20.6456 8.47013 20.9819C8.72858 21.3231 9.0688 21.5632 9.42363 21.7244C9.60177 21.8068 9.78575 21.8691 9.97338 21.912C10.1252 21.9569 10.4443 21.9936 10.5494 21.9936L10.6575 21.9992C10.7728 22.0019 10.7758 21.9971 10.8407 21.9964C10.9393 21.995 11.0459 21.9805 11.1496 21.9659C11.3598 21.9293 11.5781 21.8656 11.7847 21.7632C12.2038 21.5535 12.5156 21.193 12.6879 20.8449C12.8623 20.4933 12.9375 20.1494 12.9748 19.8207C12.993 19.6574 13.0003 19.4934 13.0003 19.3349C12.9974 19.1813 12.993 19.054 12.9733 18.8844L12.9492 17.962C13.4764 17.8609 13.9954 17.7004 14.4977 17.47C14.8657 17.2963 15.2249 17.0811 15.5483 16.8008C15.8637 16.5413 16.2047 16.1233 16.3741 15.805C16.7333 15.1497 17.0093 14.3864 16.9998 13.5615C17.0034 12.738 16.6917 11.9124 16.193 11.2834ZM12.7579 3.7945C12.8419 3.25474 13.0434 2.73089 13.2982 2.36205C13.3522 2.26655 13.4895 2.11777 13.5793 1.99805C13.6333 1.92746 13.699 1.86934 13.7589 1.83058C13.8815 1.74893 13.9933 1.72332 14.1086 1.73232C14.3364 1.74962 14.5934 1.94407 14.6715 2.26862C14.7577 2.58418 14.6817 3.05267 14.4481 3.41597C14.094 3.98411 13.4121 4.52803 12.6572 5.0152C12.6652 4.58823 12.6922 4.17718 12.7579 3.7945ZM10.3837 15.9725C9.29878 15.7116 8.34528 15.1275 7.8021 14.2895C7.52831 13.8688 7.33557 13.41 7.24504 12.8799C7.16327 12.4273 7.18225 11.9477 7.33484 11.5263C7.62469 10.662 8.49276 9.86895 9.50905 9.19216C10.0121 8.85446 10.545 8.54444 11.097 8.23304L11.1423 9.54301C10.6363 9.68072 10.1544 9.89317 9.70252 10.1824C9.36595 10.4073 9.04617 10.6883 8.7921 11.0495C8.66433 11.2364 8.56139 11.408 8.47232 11.6785C8.45261 11.7394 8.42778 11.8135 8.41683 11.8612L8.39566 11.9789L8.36573 12.1553L8.35623 12.3249C8.3263 12.783 8.49641 13.2888 8.78772 13.6674C9.09655 14.0466 9.42655 14.3047 9.8938 14.5116C9.92009 14.5255 9.95221 14.5358 9.98068 14.5462C10.3932 14.6763 10.8393 14.4639 10.9758 14.0708C11.1131 13.6791 10.8889 13.257 10.4757 13.1276L10.4684 13.1262C9.61272 12.8563 9.66456 11.9505 10.5823 11.4107C10.7699 11.2993 10.978 11.2024 11.197 11.1256L11.2036 11.3146L11.3554 16.1261C11.0247 16.1019 10.6976 16.0513 10.3837 15.9725ZM15.1672 13.5497C15.1585 14.003 14.9803 14.4805 14.7066 14.94C14.554 15.178 14.4627 15.2576 14.2721 15.4175C14.0977 15.5614 13.8779 15.6839 13.6428 15.7835C13.4099 15.8839 13.1595 15.9621 12.8988 16.0195L12.7755 11.2889L12.7682 10.9547C12.7886 10.9596 12.8134 10.9644 12.8324 10.9706C13.0639 11.026 13.3194 11.1277 13.5581 11.2523C14.5357 11.763 15.2235 12.655 15.1672 13.5497Z" fill="#0D247D"/>
</g>
<defs>
<clipPath id="clip0_22_3389">
<rect width="22" height="22" fill="white"/>
</clipPath>
</defs>
</svg>
