<svg width="20" height="20" viewBox="0 0 20 20" fill="none" xmlns="http://www.w3.org/2000/svg">
<path fill-rule="evenodd" clip-rule="evenodd" d="M6.52594 0.00292969C6.28732 0.00292969 6.05848 0.0977189 5.88976 0.266445C5.72103 0.435171 5.62624 0.664012 5.62624 0.902627V1.82402L4.70447 1.82402C3.74244 1.8253 2.82018 2.20803 2.13992 2.88829C1.45966 3.56855 1.07693 4.4911 1.07565 5.45314V16.3711C1.07693 17.3331 1.45966 18.2554 2.13992 18.9357C2.82018 19.6159 3.74273 19.9987 4.70476 19.9999H15.6227C16.5848 19.9987 17.507 19.6159 18.1873 18.9357C18.8675 18.2554 19.2503 17.3328 19.2516 16.3708V5.45285C19.2503 4.49081 18.8675 3.56855 18.1873 2.88829C17.507 2.20803 16.5845 1.8253 15.6224 1.82402H14.7015V0.902627C14.7015 0.664012 14.6067 0.435171 14.438 0.266445C14.2693 0.0977188 14.0404 0.00292969 13.8018 0.00292969C13.5632 0.00292969 13.3343 0.097719 13.1656 0.266445C12.9969 0.435171 12.9021 0.664012 12.9021 0.902627V1.82402H7.42564V0.902627C7.42564 0.664012 7.33085 0.435171 7.16212 0.266445C6.99339 0.0977191 6.76455 0.00292969 6.52594 0.00292969ZM4.70505 3.62341L5.62624 3.62341V4.54185C5.62624 4.78047 5.72103 5.00931 5.88976 5.17804C6.05848 5.34676 6.28732 5.44155 6.52594 5.44155C6.76455 5.44155 6.99339 5.34676 7.16212 5.17804C7.33085 5.00931 7.42564 4.78047 7.42564 4.54185V3.62341H12.9021V4.54185C12.9021 4.78047 12.9969 5.00931 13.1656 5.17804C13.3343 5.34676 13.5632 5.44155 13.8018 5.44155C14.0404 5.44155 14.2693 5.34676 14.438 5.17804C14.6067 5.00931 14.7015 4.78047 14.7015 4.54185V3.62341H15.6223C16.1074 3.62411 16.5724 3.81711 16.9155 4.16012C17.2585 4.50318 17.4515 4.96827 17.4522 5.45342V6.37305H2.87504V5.45324C2.87573 4.96815 3.06874 4.50313 3.41175 4.16012C3.75476 3.81711 4.21997 3.62411 4.70505 3.62341ZM2.87504 16.3707V8.17245H17.4522V16.3705C17.4515 16.8557 17.2585 17.3208 16.9155 17.6638C16.5724 18.0069 16.1073 18.1999 15.6222 18.2005H4.70505C4.2199 18.1999 3.75481 18.0069 3.41175 17.6638C3.06874 17.3208 2.87573 16.8558 2.87504 16.3707ZM10.1639 10.0104C9.92525 10.0104 9.69641 10.1052 9.52769 10.2739C9.35896 10.4427 9.26417 10.6715 9.26417 10.9101V12.2857H7.88857C7.64996 12.2857 7.42112 12.3805 7.25239 12.5492C7.08366 12.718 6.98887 12.9468 6.98887 13.1854C6.98887 13.424 7.08366 13.6529 7.25239 13.8216C7.42112 13.9903 7.64996 14.0851 7.88857 14.0851H9.26417V15.4592C9.26417 15.6978 9.35896 15.9266 9.52769 16.0953C9.69641 16.2641 9.92526 16.3589 10.1639 16.3589C10.4025 16.3589 10.6313 16.2641 10.8001 16.0953C10.9688 15.9266 11.0636 15.6978 11.0636 15.4592V14.0851H12.4376C12.6762 14.0851 12.9051 13.9903 13.0738 13.8216C13.2425 13.6529 13.3373 13.424 13.3373 13.1854C13.3373 12.9468 13.2425 12.718 13.0738 12.5492C12.9051 12.3805 12.6762 12.2857 12.4376 12.2857H11.0636V10.9101C11.0636 10.6715 10.9688 10.4427 10.8001 10.2739C10.6313 10.1052 10.4025 10.0104 10.1639 10.0104Z" fill="white"/>
</svg>
