<svg width="20" height="20" viewBox="0 0 20 20" fill="none" xmlns="http://www.w3.org/2000/svg">
<g clip-path="url(#clip0_22_2685)">
<circle cx="10" cy="10" r="8" fill="white" fill-opacity="0.3"/>
<path fill-rule="evenodd" clip-rule="evenodd" d="M3.63602 16.364C5.33589 18.0639 7.59602 19 10 19C12.404 19 14.6641 18.0639 16.364 16.364C18.0638 14.6641 19 12.404 19 10C19 7.59602 18.0639 5.33589 16.364 3.63602C14.6641 1.93614 12.404 1 10 1C7.59602 1 5.33586 1.93611 3.63602 3.63602C1.93618 5.33593 1 7.59602 1 10C1 12.404 1.93614 14.6641 3.63602 16.364ZM2.125 10C2.125 5.65771 5.65771 2.125 10 2.125C14.3423 2.125 17.875 5.65771 17.875 10C17.875 14.3423 14.3423 17.875 10 17.875C5.65771 17.875 2.125 14.3423 2.125 10ZM8.59375 8.03125C8.59375 8.80666 9.22459 9.4375 10 9.4375C11.3957 9.4375 12.5312 10.573 12.5312 11.9688C12.5312 13.1711 11.6883 14.1797 10.5625 14.4362V15.0625C10.5625 15.3731 10.3107 15.625 10 15.625C9.68932 15.625 9.4375 15.3731 9.4375 15.0625V14.4362C8.31173 14.1797 7.46875 13.1711 7.46875 11.9688C7.46875 11.6581 7.72057 11.4062 8.03125 11.4062C8.34193 11.4062 8.59375 11.6581 8.59375 11.9688C8.59375 12.7442 9.22459 13.375 10 13.375C10.7754 13.375 11.4062 12.7442 11.4062 11.9688C11.4062 11.1933 10.7754 10.5625 10 10.5625C8.60426 10.5625 7.46875 9.42699 7.46875 8.03125C7.46875 6.82887 8.31173 5.82034 9.4375 5.56377V4.9375C9.4375 4.62686 9.68932 4.375 10 4.375C10.3107 4.375 10.5625 4.62686 10.5625 4.9375V5.56377C11.6883 5.82034 12.5312 6.82887 12.5312 8.03125C12.5312 8.34189 12.2794 8.59375 11.9688 8.59375C11.6581 8.59375 11.4062 8.34189 11.4062 8.03125C11.4062 7.25584 10.7754 6.625 10 6.625C9.22459 6.625 8.59375 7.25584 8.59375 8.03125Z" fill="white"/>
<path d="M3.63602 16.364L3.77744 16.2226L3.63602 16.364ZM16.364 3.63602L16.2226 3.77744L16.364 3.63602ZM3.63602 3.63602L3.49459 3.4946L3.63602 3.63602ZM10.5625 14.4362L10.5181 14.2412L10.3625 14.2767V14.4362H10.5625ZM9.4375 14.4362H9.6375V14.2767L9.48194 14.2412L9.4375 14.4362ZM9.4375 5.56377L9.48194 5.75877L9.6375 5.72332V5.56377H9.4375ZM10.5625 5.56377H10.3625V5.72332L10.5181 5.75877L10.5625 5.56377ZM10 18.8C7.64906 18.8 5.4398 17.8849 3.77744 16.2226L3.49459 16.5054C5.23198 18.2428 7.54297 19.2 10 19.2V18.8ZM16.2226 16.2226C14.5602 17.885 12.3509 18.8 10 18.8V19.2C12.457 19.2 14.7681 18.2428 16.5054 16.5054L16.2226 16.2226ZM18.8 10C18.8 12.3509 17.8849 14.5602 16.2226 16.2226L16.5054 16.5054C18.2428 14.768 19.2 12.457 19.2 10H18.8ZM16.2226 3.77744C17.8849 5.4398 18.8 7.64906 18.8 10H19.2C19.2 7.54297 18.2428 5.23198 16.5054 3.49459L16.2226 3.77744ZM10 1.2C12.3509 1.2 14.5602 2.11507 16.2226 3.77744L16.5054 3.49459C14.768 1.75721 12.457 0.8 10 0.8V1.2ZM3.77744 3.77743C5.43977 2.11504 7.64905 1.2 10 1.2V0.8C7.54298 0.8 5.23194 1.75717 3.49459 3.4946L3.77744 3.77743ZM1.2 10C1.2 7.64906 2.1151 5.43984 3.77744 3.77743L3.49459 3.4946C1.75725 5.23201 0.8 7.54297 0.8 10H1.2ZM3.77744 16.2226C2.11507 14.5602 1.2 12.3509 1.2 10H0.8C0.8 12.457 1.75721 14.768 3.49459 16.5054L3.77744 16.2226ZM10 1.925C5.54725 1.925 1.925 5.54725 1.925 10H2.325C2.325 5.76817 5.76817 2.325 10 2.325V1.925ZM18.075 10C18.075 5.54725 14.4527 1.925 10 1.925V2.325C14.2318 2.325 17.675 5.76817 17.675 10H18.075ZM10 18.075C14.4527 18.075 18.075 14.4527 18.075 10H17.675C17.675 14.2318 14.2318 17.675 10 17.675V18.075ZM1.925 10C1.925 14.4527 5.54725 18.075 10 18.075V17.675C5.76817 17.675 2.325 14.2318 2.325 10H1.925ZM10 9.2375C9.33505 9.2375 8.79375 8.6962 8.79375 8.03125H8.39375C8.39375 8.91711 9.11414 9.6375 10 9.6375V9.2375ZM12.7312 11.9688C12.7312 10.4626 11.5062 9.2375 10 9.2375V9.6375C11.2853 9.6375 12.3313 10.6835 12.3313 11.9688H12.7312ZM10.6069 14.6312C11.8215 14.3544 12.7312 13.2668 12.7312 11.9688H12.3313C12.3313 13.0755 11.5551 14.0049 10.5181 14.2412L10.6069 14.6312ZM10.7625 15.0625V14.4362H10.3625V15.0625H10.7625ZM10 15.825C10.4211 15.825 10.7625 15.4836 10.7625 15.0625H10.3625C10.3625 15.2627 10.2002 15.425 10 15.425V15.825ZM9.2375 15.0625C9.2375 15.4836 9.57886 15.825 10 15.825V15.425C9.79979 15.425 9.6375 15.2627 9.6375 15.0625H9.2375ZM9.2375 14.4362V15.0625H9.6375V14.4362H9.2375ZM7.26875 11.9688C7.26875 13.2668 8.17855 14.3544 9.39306 14.6312L9.48194 14.2412C8.4449 14.0049 7.66875 13.0755 7.66875 11.9688H7.26875ZM8.03125 11.2063C7.61011 11.2063 7.26875 11.5477 7.26875 11.9688H7.66875C7.66875 11.7686 7.83104 11.6062 8.03125 11.6062V11.2063ZM8.79375 11.9688C8.79375 11.5477 8.45239 11.2063 8.03125 11.2063V11.6062C8.23146 11.6062 8.39375 11.7686 8.39375 11.9688H8.79375ZM10 13.175C9.33505 13.175 8.79375 12.6337 8.79375 11.9688H8.39375C8.39375 12.8546 9.11414 13.575 10 13.575V13.175ZM11.2063 11.9688C11.2063 12.6337 10.6649 13.175 10 13.175V13.575C10.8859 13.575 11.6062 12.8546 11.6062 11.9688H11.2063ZM10 10.7625C10.6649 10.7625 11.2063 11.3038 11.2063 11.9688H11.6062C11.6062 11.0829 10.8859 10.3625 10 10.3625V10.7625ZM7.26875 8.03125C7.26875 9.53745 8.4938 10.7625 10 10.7625V10.3625C8.71472 10.3625 7.66875 9.31653 7.66875 8.03125H7.26875ZM9.39306 5.36877C8.17855 5.64557 7.26875 6.73323 7.26875 8.03125H7.66875C7.66875 6.92451 8.4449 5.99512 9.48194 5.75877L9.39306 5.36877ZM9.2375 4.9375V5.56377H9.6375V4.9375H9.2375ZM10 4.175C9.57886 4.175 9.2375 4.51641 9.2375 4.9375H9.6375C9.6375 4.73731 9.79979 4.575 10 4.575V4.175ZM10.7625 4.9375C10.7625 4.51641 10.4211 4.175 10 4.175V4.575C10.2002 4.575 10.3625 4.73731 10.3625 4.9375H10.7625ZM10.7625 5.56377V4.9375H10.3625V5.56377H10.7625ZM12.7312 8.03125C12.7312 6.73323 11.8215 5.64557 10.6069 5.36877L10.5181 5.75877C11.5551 5.99512 12.3313 6.92451 12.3313 8.03125H12.7312ZM11.9688 8.79375C12.3899 8.79375 12.7312 8.45234 12.7312 8.03125H12.3313C12.3313 8.23144 12.169 8.39375 11.9688 8.39375V8.79375ZM11.2063 8.03125C11.2063 8.45234 11.5476 8.79375 11.9688 8.79375V8.39375C11.7685 8.39375 11.6062 8.23144 11.6062 8.03125H11.2063ZM10 6.825C10.6649 6.825 11.2063 7.3663 11.2063 8.03125H11.6062C11.6062 7.14539 10.8859 6.425 10 6.425V6.825ZM8.79375 8.03125C8.79375 7.3663 9.33505 6.825 10 6.825V6.425C9.11414 6.425 8.39375 7.14539 8.39375 8.03125H8.79375Z" fill="white"/>
</g>
<defs>
<clipPath id="clip0_22_2685">
<rect width="20" height="20" fill="white"/>
</clipPath>
</defs>
</svg>
