<svg width="20" height="20" viewBox="0 0 20 20" fill="none" xmlns="http://www.w3.org/2000/svg">
<g id="smartphone 1" clip-path="url(#clip0_22_2314)">
<path id="Union" fill-rule="evenodd" clip-rule="evenodd" d="M12.7644 1H6.39941C5.71854 1 5.06745 1.24101 4.51302 1.76693L1.80249 4.44615C1.3207 4.92794 1 5.5949 1 6.3596V14.9574C1 16.4545 2.21842 17.6725 3.71594 17.6725H12.0669C12.8168 18.7917 13.8742 19.5771 15.2554 19.9698C15.392 20.0089 15.5418 20.0111 15.6876 19.9702C19.3784 18.925 20.1917 15.3157 19.7248 12.3122C19.6799 11.9422 19.4619 11.6202 19.1101 11.4185L15.8855 9.67586C15.7614 9.60942 15.6257 9.57507 15.4881 9.55569V3.71556C15.4881 2.21804 14.2666 1 12.7644 1ZM3.71594 16.0892C3.09127 16.0892 2.58333 15.5817 2.58333 14.9574V6.3596C2.58333 6.04629 2.71528 5.77184 2.91886 5.56909L5.6147 2.90456C5.8384 2.69112 6.08647 2.58333 6.39941 2.58333H12.7644C13.393 2.58333 13.9048 3.09127 13.9048 3.71556V10.132L11.5352 11.4173C11.1926 11.6007 10.9379 11.9516 10.9167 12.3388C10.9167 12.3466 10.9148 12.3686 10.9118 12.4035L10.9118 12.4035C10.8815 12.7552 10.7382 14.4185 11.2801 16.0892H3.71594ZM18.184 12.7177C18.3525 14.013 18.4777 17.3745 15.4719 18.3799C13.6324 17.7668 12.7565 16.2716 12.5143 14.34C12.4307 13.6559 12.4486 13.0581 12.473 12.7099L15.3173 11.1684L18.184 12.7177ZM11.3794 8.3599C11.3794 7.92271 11.0253 7.56824 10.5877 7.56824H5.89648C5.4589 7.56824 5.10482 7.92271 5.10482 8.3599C5.10482 8.7971 5.4589 9.15157 5.89648 9.15157H10.5877C11.0253 9.15157 11.3794 8.7971 11.3794 8.3599ZM5.89648 11.2012H8.24211C8.67969 11.2012 9.03377 11.5557 9.03377 11.9929C9.03377 12.4301 8.67969 12.7845 8.24211 12.7845H5.89648C5.4589 12.7845 5.10482 12.4301 5.10482 11.9929C5.10482 11.5557 5.4589 11.2012 5.89648 11.2012Z" fill="#5A5A75"/>
</g>
<defs>
<clipPath id="clip0_22_2314">
<rect width="20" height="20" fill="white"/>
</clipPath>
</defs>
</svg>
