<svg width="20" height="20" viewBox="0 0 20 20" fill="none" xmlns="http://www.w3.org/2000/svg">
<g clip-path="url(#clip0_22_2693)">
<path d="M10.9996 0L11.7078 2.29196H13.9999L12.1459 3.70804L12.8541 6L10.9996 4.58392L9.14563 6L9.85384 3.70804L7.99987 2.29196H10.2914L10.9996 0Z" fill="white"/>
<path d="M0 7.14067H2.70043L3.53506 4.49634L4.36934 7.14067H7.06976L4.88527 8.77532L5.71955 11.42L3.53506 9.78536L1.35021 11.42L2.18484 8.77532L0 7.14067Z" fill="white" fill-opacity="0.4"/>
<path fill-rule="evenodd" clip-rule="evenodd" d="M2.70043 7.14067H0L2.18484 8.77532L1.35021 11.42L3.53506 9.78536L5.71955 11.42L4.88527 8.77532L7.06976 7.14067H4.36934L3.53506 4.49634L2.70043 7.14067ZM3.53496 6.08435L3.04544 7.63528H1.47583L2.74587 8.5855L2.25807 10.1312L3.53508 9.17577L4.81189 10.1312L4.32429 8.5855L5.59412 7.63528H4.02428L3.53496 6.08435Z" fill="white"/>
<path d="M3.50588 20.2269L4.31376 17.6452L2.19922 16.0497H4.81253L5.62042 13.468L6.4279 16.0497H9.04122L6.92707 17.6452L7.73456 20.2269L5.62042 18.6314L3.50588 20.2269Z" fill="white"/>
<path d="M16.4877 19.7689L14.6616 18.3907L12.8359 19.7689L13.5331 17.5392L11.707 16.1614H13.9644L14.6616 13.9316L15.3592 16.1614H17.6162L15.7901 17.5392L16.4877 19.7689Z" fill="white"/>
<path d="M20.0017 7.32157L18.4244 8.51145L19.0267 10.437L17.4499 9.24714L15.873 10.437L16.4753 8.51145L14.8984 7.32157H16.8475L17.4499 5.396L18.0522 7.32157H20.0017Z" fill="white"/>
</g>
<defs>
<clipPath id="clip0_22_2693">
<rect width="20" height="20" fill="white"/>
</clipPath>
</defs>
</svg>
