<svg width="18" height="18" viewBox="0 0 18 18" fill="none" xmlns="http://www.w3.org/2000/svg">
<g id="strip 1" clip-path="url(#clip0_175_87)">
<g id="Group">
<path id="Vector" d="M14.478 0.880127H3.52199C1.66079 0.881927 0.151794 2.39093 0.149994 4.25213C0.149994 4.50053 0.351594 4.70213 0.599994 4.70213H16.95V13.7477C16.9488 15.1121 15.8424 16.2185 14.478 16.2197H13.74V14.1977H14.856C15.1044 14.1977 15.306 13.9961 15.306 13.7477C15.306 13.4993 15.1044 13.2977 14.856 13.2977H1.04999V6.57773C1.05119 5.99273 0.150594 5.98733 0.149994 6.57773V13.7477C0.151794 15.6089 1.66079 17.1179 3.52199 17.1197H14.478C16.3392 17.1179 17.8482 15.6089 17.85 13.7477V4.25213C17.8482 2.39093 16.3392 0.881927 14.478 0.880127ZM4.25999 3.80213H1.09559C1.31219 2.63213 2.33219 1.78253 3.52199 1.78013H4.25999V3.80213ZM8.54999 3.80213H5.15999V1.78013H8.54999V3.80213ZM12.84 3.80213H9.44999V1.78013H12.84V3.80213ZM13.74 3.80213V1.78013H14.478C15.6678 1.78253 16.6878 2.63213 16.9044 3.80213H13.74ZM4.25999 16.2197H3.52199C2.33099 16.2185 1.30919 15.3689 1.09079 14.1977H4.25999V16.2197ZM5.15999 16.2197V14.1977H8.54999L8.55239 16.2197H5.15999ZM12.84 16.2197H9.44999V14.1977H12.84V16.2197Z" fill="white"/>
<path id="Vector_2" d="M7.5762 11.6664C7.7472 11.6664 7.9146 11.6196 8.0604 11.5308L10.908 9.79076C11.4966 9.44996 11.4942 8.54576 10.908 8.20436L8.061 6.46436C7.464 6.07916 6.6288 6.55256 6.6468 7.25996V10.74C6.6474 11.253 7.0632 11.6688 7.5762 11.6688V11.6664ZM7.5918 7.23716C7.5834 7.26356 10.5288 8.98556 10.4388 9.02516L7.5468 10.74L7.5918 7.23716Z" fill="white"/>
</g>
</g>
<defs>
<clipPath id="clip0_175_87">
<rect width="18" height="18" fill="white"/>
</clipPath>
</defs>
</svg>
