<svg width="18" height="18" viewBox="0 0 18 18" fill="none" xmlns="http://www.w3.org/2000/svg">
<g id="strip 1">
<path id="Vector" d="M13.2499 10.7166H9.25044C9.58044 9.74049 9.75583 8.91896 9.78475 8.21815C9.85298 6.56542 9.06135 5.91106 8.38527 5.65315C8.35694 5.64233 8.32752 5.63453 8.2975 5.62988C7.7736 5.54838 7.58712 5.79135 7.46354 6.06599L7.44728 6.10188C7.4292 6.14129 7.41739 6.18321 7.41226 6.22616C7.30652 7.11925 7.02205 7.98277 6.57531 8.76669C6.12857 9.55061 5.52845 10.2393 4.80973 10.793C4.73436 10.6748 4.62985 10.5775 4.50595 10.51C4.38206 10.4425 4.24283 10.407 4.10127 10.4069H1.14728C0.925201 10.4072 0.712288 10.4943 0.555254 10.6491C0.39822 10.8039 0.309891 11.0137 0.309646 11.2327V17.1743C0.309891 17.3932 0.39822 17.6031 0.555254 17.7579C0.712288 17.9127 0.925201 17.9998 1.14728 18H4.10127C4.27311 17.9998 4.44075 17.9476 4.58152 17.8504C4.72228 17.7533 4.8294 17.6159 4.88837 17.4568C5.21352 17.7111 5.5919 17.8911 5.99619 17.9837C6.02654 17.9906 6.05755 17.9943 6.08871 17.9947C6.42348 17.9982 6.82259 18 7.28283 18C7.74197 18 8.26188 17.9982 8.83877 17.9947H12.6066C12.8269 17.9948 13.0432 17.9371 13.2335 17.8277C13.4238 17.7183 13.5812 17.561 13.6895 17.372C13.7979 17.1829 13.8534 16.9688 13.8503 16.7517C13.8472 16.5346 13.7856 16.3221 13.6719 16.1362C13.9234 15.9483 14.0929 15.6732 14.1461 15.3666C14.1993 15.0601 14.1322 14.7451 13.9584 14.4855C14.2025 14.2815 14.3573 13.9926 14.3906 13.6788C14.4239 13.3651 14.333 13.0508 14.137 12.8015C14.3088 12.6293 14.4251 12.4108 14.4713 12.1736C14.5176 11.9364 14.4917 11.691 14.3969 11.4683C14.3021 11.2455 14.1427 11.0554 13.9386 10.9217C13.7346 10.7879 13.495 10.7167 13.2499 10.7167V10.7166ZM4.08298 17.1562H1.16568V11.2507H4.08298V17.1562ZM10.7466 13.169H13.1534C13.2556 13.1699 13.3534 13.2106 13.4253 13.2823C13.4973 13.3539 13.5376 13.4506 13.5376 13.5514C13.5376 13.6522 13.4973 13.7489 13.4253 13.8205C13.3534 13.8921 13.2556 13.9328 13.1534 13.9338H11.0898C10.9763 13.9338 10.8674 13.9782 10.7871 14.0574C10.7069 14.1365 10.6618 14.2438 10.6618 14.3557C10.6618 14.4676 10.7069 14.5749 10.7871 14.654C10.8674 14.7331 10.9763 14.7775 11.0898 14.7775H12.9201C13.0223 14.7785 13.12 14.8192 13.192 14.8908C13.2639 14.9624 13.3043 15.0592 13.3043 15.16C13.3043 15.2607 13.2639 15.3575 13.192 15.4291C13.12 15.5007 13.0223 15.5414 12.9201 15.5424H11.3905C11.277 15.5424 11.1682 15.5868 11.0879 15.6659C11.0076 15.745 10.9625 15.8524 10.9625 15.9642C10.9625 16.0761 11.0076 16.1834 11.0879 16.2626C11.1682 16.3417 11.277 16.3861 11.3905 16.3861H12.6066C12.7089 16.3871 12.8066 16.4278 12.8786 16.4994C12.9505 16.571 12.9909 16.6677 12.9909 16.7685C12.9909 16.8693 12.9505 16.966 12.8786 17.0376C12.8066 17.1093 12.7089 17.15 12.6066 17.1509H8.83613C7.71126 17.1578 6.80687 17.158 6.14709 17.1515C5.89407 17.0876 5.65669 16.9741 5.44913 16.8178C5.24157 16.6615 5.06808 16.4656 4.93901 16.2418V11.7457C5.82772 11.1469 6.58006 10.372 7.14806 9.47056C7.71605 8.56912 8.08723 7.56088 8.23791 6.51015C8.52661 6.65872 8.97679 7.04154 8.92979 8.18384C8.89911 8.92701 8.67507 9.8456 8.24504 10.9922C8.22112 11.056 8.21318 11.1245 8.22193 11.192C8.23067 11.2594 8.25582 11.3238 8.29524 11.3796C8.33467 11.4354 8.38719 11.481 8.44834 11.5125C8.50949 11.5439 8.57745 11.5604 8.64644 11.5604H13.2499C13.3522 11.5614 13.4499 11.6021 13.5219 11.6737C13.5938 11.7453 13.6342 11.842 13.6342 11.9428C13.6342 12.0436 13.5938 12.1403 13.5219 12.2119C13.4499 12.2835 13.3522 12.3242 13.2499 12.3252H10.7466C10.6331 12.3252 10.5243 12.3697 10.444 12.4488C10.3638 12.5279 10.3187 12.6352 10.3187 12.7471C10.3187 12.859 10.3638 12.9663 10.444 13.0454C10.5243 13.1245 10.6331 13.169 10.7466 13.169ZM1.39204 11.9568C1.39204 11.845 1.43713 11.7377 1.51739 11.6585C1.59765 11.5794 1.7065 11.535 1.82 11.535H2.13406C2.24756 11.535 2.35642 11.5794 2.43668 11.6585C2.51694 11.7377 2.56202 11.845 2.56202 11.9568C2.56202 12.0687 2.51694 12.176 2.43668 12.2552C2.35642 12.3343 2.24756 12.3787 2.13406 12.3787H1.82004C1.70654 12.3787 1.59768 12.3343 1.51742 12.2552C1.43716 12.176 1.39208 12.0687 1.39208 11.9568H1.39204ZM10.8808 2.0632C10.8554 1.98631 10.8082 1.91821 10.7447 1.86702C10.6812 1.81583 10.6042 1.7837 10.5227 1.77446L9.01859 1.60388L8.38923 0.2465C8.35513 0.172965 8.30032 0.110636 8.23131 0.066935C8.16231 0.0232336 8.08202 0 8 0C7.91798 0 7.83768 0.0232336 7.76868 0.066935C7.69967 0.110636 7.64486 0.172965 7.61076 0.2465L6.98137 1.60388L5.47732 1.77446C5.39584 1.78371 5.31878 1.81584 5.2553 1.86703C5.19182 1.91822 5.1446 1.98631 5.11925 2.0632C5.09391 2.14009 5.09151 2.22254 5.11234 2.30074C5.13318 2.37893 5.17637 2.44958 5.23677 2.50427L6.35187 3.51378L6.05165 4.9766C6.03539 5.05585 6.04257 5.13803 6.07234 5.21337C6.10211 5.2887 6.15322 5.35402 6.21957 5.40154C6.28592 5.44907 6.36473 5.47679 6.44661 5.48142C6.5285 5.48605 6.61001 5.46739 6.68144 5.42766L8 4.69416L9.31852 5.42766C9.38995 5.46739 9.47146 5.48605 9.55334 5.48142C9.63523 5.47679 9.71403 5.44907 9.78039 5.40154C9.84674 5.35402 9.89785 5.2887 9.92761 5.21337C9.95738 5.13803 9.96457 5.05585 9.94831 4.9766L9.64813 3.51378L10.7632 2.50427C10.8236 2.44958 10.8668 2.37894 10.8877 2.30074C10.9085 2.22255 10.9061 2.14009 10.8808 2.0632ZM8.8913 3.05338C8.83703 3.10251 8.79654 3.16463 8.77377 3.23372C8.75099 3.30281 8.7467 3.37652 8.76131 3.44773L8.92372 4.2392L8.21045 3.84235C8.14627 3.80666 8.07383 3.7879 8.00014 3.7879C7.92645 3.7879 7.85401 3.80666 7.78983 3.84235L7.07655 4.2392L7.23897 3.44773C7.25357 3.37652 7.24928 3.30281 7.22651 3.23372C7.20373 3.16463 7.16325 3.10251 7.10897 3.05338L6.50536 2.50715L7.31914 2.41487C7.39236 2.40657 7.46216 2.37977 7.52179 2.33707C7.58141 2.29437 7.62884 2.23721 7.65948 2.17113L8 1.43672L8.34051 2.17113C8.37115 2.2372 8.41857 2.29436 8.47819 2.33706C8.53781 2.37976 8.6076 2.40656 8.68082 2.41487L9.49463 2.50715L8.8913 3.05338ZM15.979 3.64523C15.9537 3.56834 15.9065 3.50024 15.843 3.44905C15.7795 3.39786 15.7024 3.36574 15.6209 3.35649L14.4529 3.22399L13.9643 2.16983C13.9302 2.09629 13.8754 2.03397 13.8064 1.99026C13.7374 1.94656 13.6571 1.92333 13.5751 1.92333C13.493 1.92333 13.4127 1.94656 13.3437 1.99026C13.2747 2.03397 13.2199 2.09629 13.1858 2.16983L12.6969 3.22399L11.5288 3.35649C11.4473 3.36574 11.3703 3.39787 11.3068 3.44906C11.2433 3.50025 11.1961 3.56834 11.1707 3.64524C11.1454 3.72213 11.143 3.80458 11.1638 3.88277C11.1847 3.96097 11.2279 4.03161 11.2883 4.0863L12.1543 4.87029L11.9211 6.00633C11.9049 6.08558 11.912 6.16776 11.9418 6.24309C11.9716 6.31843 12.0227 6.38375 12.089 6.43127C12.1554 6.47879 12.2342 6.50652 12.3161 6.51115C12.398 6.51578 12.4795 6.49712 12.5509 6.45738L13.5749 5.88785L14.5989 6.45738C14.6703 6.49712 14.7518 6.51578 14.8337 6.51115C14.9156 6.50652 14.9944 6.47879 15.0608 6.43127C15.1271 6.38375 15.1782 6.31843 15.208 6.24309C15.2378 6.16776 15.2449 6.08558 15.2287 6.00633L14.9955 4.87029L15.8616 4.0863C15.922 4.03161 15.9651 3.96096 15.986 3.88276C16.0068 3.80457 16.0044 3.72212 15.979 3.64523ZM14.2387 4.40988C14.1844 4.45902 14.1439 4.52115 14.1211 4.59024C14.0983 4.65934 14.094 4.73306 14.1087 4.80427L14.204 5.26896L13.7852 5.03595C13.721 5.00024 13.6485 4.98148 13.5748 4.98148C13.5011 4.98148 13.4287 5.00024 13.3645 5.03595L12.9457 5.26896L13.041 4.80427C13.0556 4.73306 13.0514 4.65934 13.0286 4.59024C13.0058 4.52115 12.9653 4.45902 12.911 4.40988L12.5568 4.08919L13.0347 4.03501C13.1079 4.02671 13.1777 3.99991 13.2373 3.95721C13.297 3.91451 13.3444 3.85735 13.375 3.79127L13.575 3.36008L13.7748 3.79127C13.8055 3.85735 13.8529 3.91451 13.9125 3.95721C13.9722 3.99991 14.042 4.02671 14.1152 4.03501L14.5931 4.08919L14.2387 4.40988ZM4.82949 3.64523C4.80414 3.56834 4.75692 3.50024 4.69343 3.44905C4.62994 3.39786 4.55287 3.36574 4.47139 3.35649L3.30308 3.22399L2.81449 2.16983C2.78039 2.09629 2.72558 2.03397 2.65657 1.99026C2.58757 1.94656 2.50727 1.92333 2.42525 1.92333C2.34323 1.92333 2.26294 1.94656 2.19394 1.99026C2.12493 2.03397 2.07012 2.09629 2.03602 2.16983L1.54711 3.22399L0.379047 3.35649C0.297568 3.36574 0.220499 3.39786 0.157013 3.44905C0.0935274 3.50024 0.0462998 3.56833 0.0209518 3.64522C-0.00439612 3.72211 -0.00679668 3.80456 0.0140359 3.88276C0.0348685 3.96096 0.0780567 4.03161 0.13846 4.0863L1.00448 4.87029L0.771348 6.00633C0.755088 6.08558 0.762271 6.16776 0.792041 6.24309C0.821811 6.31843 0.872914 6.38375 0.939268 6.43127C1.00562 6.47879 1.08443 6.50652 1.16631 6.51115C1.2482 6.51578 1.3297 6.49712 1.40113 6.45738L2.42515 5.88785L3.44912 6.45738C3.52056 6.49712 3.60206 6.51578 3.68395 6.51115C3.76583 6.50652 3.84464 6.47879 3.91099 6.43127C3.97734 6.38375 4.02845 6.31843 4.05822 6.24309C4.08799 6.16776 4.09517 6.08558 4.07891 6.00633L3.84578 4.87029L4.71176 4.0863C4.7722 4.03164 4.81543 3.961 4.8363 3.8828C4.85717 3.80461 4.85481 3.72214 4.82949 3.64523ZM3.0891 4.40988C3.03482 4.45902 2.99433 4.52115 2.97155 4.59024C2.94878 4.65934 2.94449 4.73306 2.9591 4.80427L3.05447 5.26896L2.63563 5.03595C2.57143 5.00021 2.49895 4.98143 2.42522 4.98143C2.35149 4.98143 2.27901 5.00021 2.2148 5.03595L1.79597 5.26896L1.8913 4.80427C1.90591 4.73306 1.90162 4.65934 1.87885 4.59024C1.85607 4.52115 1.81558 4.45902 1.7613 4.40988L1.40709 4.08919L1.88498 4.03501C1.9582 4.02671 2.028 3.99991 2.08763 3.95721C2.14726 3.91451 2.19469 3.85735 2.22532 3.79127L2.42525 3.36008L2.62497 3.79127C2.65561 3.85735 2.70304 3.91451 2.76266 3.95721C2.82229 3.99991 2.89209 4.02671 2.96531 4.03501L3.4432 4.08919L3.0891 4.40988Z" fill="#0D247D"/>
</g>
</svg>
