<svg width="20" height="20" viewBox="0 0 20 20" fill="none" xmlns="http://www.w3.org/2000/svg">
<path fill-rule="evenodd" clip-rule="evenodd" d="M8.62093 2.75926L8.47929 3.62885C8.47929 3.62886 8.47929 3.62884 8.47929 3.62885C8.20551 5.3099 6.50167 6.31455 4.9454 5.71793C4.9454 5.71793 4.9454 5.71793 4.9454 5.71793L4.13713 5.40808L2.75915 7.85047L3.42386 8.41041C4.70875 9.49288 4.70877 11.5071 3.42388 12.5895L2.75915 13.1495L4.13713 15.5919L4.94539 15.282C6.50167 14.6854 8.2055 15.69 8.47928 17.3711C8.47928 17.3711 8.47928 17.3711 8.47928 17.3711L8.62094 18.2407H11.3791L11.5207 17.3711C11.7945 15.6901 13.4983 14.6854 15.0546 15.282C15.0546 15.282 15.0546 15.282 15.0546 15.282L15.8629 15.5919L17.2409 13.1495L16.5762 12.5895C15.2912 11.5071 15.2912 9.49289 16.5762 8.41043L17.2409 7.85048L15.8629 5.40809L15.0546 5.71793C13.4983 6.31456 11.7945 5.30991 11.5207 3.62888L11.3791 2.75926H8.62093ZM15.9768 5.36442C15.9768 5.36442 15.9768 5.36441 15.9768 5.36442V5.36442ZM8.64119 18.3651L8.64115 18.3649C8.64117 18.3649 8.64118 18.365 8.64119 18.3651ZM8.64114 2.63518L8.64119 2.63487C8.64118 2.63498 8.64116 2.63507 8.64114 2.63518ZM6.94801 2.3452C7.0746 1.56796 7.73127 1 8.49875 1H11.5012C12.2687 1 12.9254 1.56797 13.052 2.34523L13.2139 3.33921C13.2139 3.3392 13.2139 3.33922 13.2139 3.33921C13.3094 3.92582 13.9057 4.28006 14.4532 4.07018L15.3753 3.71668C15.3753 3.71669 15.3753 3.71668 15.3753 3.71668C16.0942 3.44108 16.9032 3.73742 17.2878 4.41905L18.789 7.0799C19.1738 7.76207 19.0201 8.62887 18.4265 9.12899L17.6662 9.76947C17.2167 10.1482 17.2167 10.8518 17.6662 11.2305L18.4265 11.871C19.0201 12.3711 19.1739 13.2379 18.789 13.92L17.2878 16.5809C16.9032 17.2625 16.0943 17.5589 15.3754 17.2833C15.3753 17.2833 15.3754 17.2833 15.3754 17.2833L14.4532 16.9298C13.9057 16.7199 13.3094 17.0741 13.2139 17.6607C13.2139 17.6607 13.2139 17.6607 13.2139 17.6607L13.052 18.6547C12.9254 19.4319 12.2688 20 11.5012 20H8.49875C7.7312 20 7.07459 19.4319 6.94801 18.6548C6.94801 18.6548 6.94801 18.6548 6.94801 18.6548L6.7861 17.6608C6.69057 17.0742 6.09432 16.7199 5.54683 16.9298L4.62469 17.2833C3.90578 17.5589 3.09686 17.2626 2.71222 16.5809L1.21099 13.9201C0.826146 13.2379 0.979856 12.3711 1.5735 11.871L2.3338 11.2305C2.78331 10.8518 2.78331 10.1482 2.3338 9.76946L1.57353 9.12902C0.979885 8.62889 0.82613 7.7621 1.21097 7.07992L2.7122 4.41909C3.09684 3.73742 3.90578 3.44108 4.62468 3.71667L5.54682 4.07018C6.09431 4.28007 6.69057 3.92583 6.7861 3.33924L6.94801 2.3452C6.94801 2.34519 6.94801 2.34521 6.94801 2.3452ZM6.3337 10.5C6.3337 8.42596 7.97639 6.7469 10 6.7469C12.0236 6.7469 13.6663 8.42596 13.6663 10.5C13.6663 12.574 12.0236 14.2531 10 14.2531C7.9764 14.2531 6.3337 12.574 6.3337 10.5ZM10 8.50616C8.92202 8.50616 8.05031 9.40006 8.05031 10.5C8.05031 11.5999 8.92202 12.4938 10 12.4938C11.078 12.4938 11.9497 11.5999 11.9497 10.5C11.9497 9.40006 11.078 8.50616 10 8.50616Z" fill="#262641"/>
</svg>
