<svg width="20" height="20" viewBox="0 0 20 20" fill="none" xmlns="http://www.w3.org/2000/svg">
<path d="M12.5069 1.2929C12.367 1.15305 12.1889 1.05781 11.9949 1.01922C11.8009 0.980631 11.5999 1.00043 11.4172 1.0761C11.2345 1.15178 11.0783 1.27994 10.9684 1.44437C10.8585 1.60881 10.7999 1.80214 10.7999 1.9999V5.49992C7.92757 5.52972 5.18283 6.69076 3.16103 8.73121C1.13923 10.7716 0.003433 13.5269 0 16.3994V18.1992C0.00010023 18.4138 0.06922 18.6227 0.197151 18.7951C0.325082 18.9674 0.505042 19.094 0.710452 19.1562C0.804292 19.1849 0.901885 19.1994 1 19.1992C1.16462 19.1992 1.32668 19.1585 1.47181 19.0808C1.61694 19.0031 1.74067 18.8909 1.83201 18.7539C5.65185 13.0244 9.31494 12.6152 10.7998 12.7344V16.3994C10.7998 16.5971 10.8585 16.7905 10.9683 16.9549C11.0782 17.1193 11.2344 17.2475 11.4171 17.3232C11.5998 17.3988 11.8009 17.4186 11.9948 17.38C12.1888 17.3415 12.367 17.2462 12.5068 17.1064L19.707 9.90614C19.7999 9.81331 19.8736 9.70309 19.9239 9.58177C19.9741 9.46046 20 9.33043 20 9.19911C20 9.06779 19.9741 8.93776 19.9239 8.81645C19.8736 8.69513 19.7999 8.58491 19.707 8.49208L12.5069 1.2929Z" fill="white" fill-opacity="0.2"/>
<path fill-rule="evenodd" clip-rule="evenodd" d="M12.2999 3.2071V6.98443L10.8154 6.99984C8.33793 7.02554 5.97045 8.027 4.22655 9.78699C2.48285 11.5468 1.50319 13.923 1.5 16.4003V16.637C5.28981 11.6774 9.00253 11.0853 10.9198 11.2392L12.2998 11.3499V15.192L18.2927 9.19913L12.2999 3.2071ZM1.83201 18.7539C1.74067 18.8909 1.61694 19.0031 1.47181 19.0808C1.32668 19.1585 1.16462 19.1992 1 19.1992C0.901885 19.1994 0.804292 19.1849 0.710452 19.1562C0.505042 19.094 0.325082 18.9674 0.197151 18.7951C0.06922 18.6227 0.00010023 18.4138 0 18.1992V16.3994C0.003433 13.5269 1.13923 10.7716 3.16103 8.7312C5.18283 6.69076 7.92757 5.52972 10.7999 5.49992V1.9999C10.7999 1.80214 10.8585 1.60881 10.9684 1.44437C11.0783 1.27994 11.2345 1.15178 11.4172 1.0761C11.5999 1.00043 11.8009 0.980631 11.9949 1.01922C12.1889 1.05781 12.367 1.15305 12.5069 1.2929L19.707 8.49208C19.7999 8.58491 19.8736 8.69513 19.9239 8.81644C19.9741 8.93776 20 9.06779 20 9.19911C20 9.33043 19.9741 9.46046 19.9239 9.58177C19.8736 9.70309 19.7999 9.81331 19.707 9.90614L12.5068 17.1064C12.367 17.2462 12.1888 17.3415 11.9948 17.38C11.8009 17.4186 11.5998 17.3988 11.4171 17.3232C11.2344 17.2475 11.0782 17.1193 10.9683 16.9549C10.8585 16.7905 10.7998 16.5971 10.7998 16.3994V12.7344C10.5713 12.716 10.2912 12.7102 9.96684 12.7344C9.76159 12.7496 9.53862 12.7769 9.29981 12.8207C7.46401 13.1568 4.69194 14.4642 1.83201 18.7539Z" fill="white"/>
</svg>
