<svg width="20" height="20" viewBox="0 0 20 20" fill="none" xmlns="http://www.w3.org/2000/svg">
<g id="smartphone 1">
<path id="Union" fill-rule="evenodd" clip-rule="evenodd" d="M13.5425 0.942277L17.4512 4.85104C17.5725 4.97162 17.6429 5.13913 17.6429 5.3125V18.3482C17.6429 18.7087 17.3515 19 16.9911 19H2.65179C2.29135 19 2 18.7087 2 18.3482V1.40179C2 1.04135 2.29135 0.75 2.65179 0.75H13.0804C13.2537 0.75 13.4212 0.820393 13.5425 0.942277ZM15.4177 4.66071L13.7321 2.9752V4.66071H15.4177ZM3.30357 2.05357V17.6964H16.3393V5.96429H13.0804C12.7199 5.96429 12.4286 5.67294 12.4286 5.3125V2.05357H3.30357ZM11.7768 11.8304V12.4821C12.1372 12.4821 12.4286 12.7735 12.4286 13.1339V16.3929C12.4286 16.7533 12.1372 17.0446 11.7768 17.0446H7.86607C7.50563 17.0446 7.21429 16.7533 7.21429 16.3929V13.1339C7.21429 12.7735 7.50563 12.4821 7.86607 12.4821V11.8304C7.86607 10.7523 8.74338 9.875 9.82143 9.875C10.8995 9.875 11.7768 10.7523 11.7768 11.8304ZM9.82143 11.1786C9.46164 11.1786 9.16964 11.4706 9.16964 11.8304V12.4821H10.4732V11.8304C10.4732 11.4706 10.1812 11.1786 9.82143 11.1786ZM8.51786 13.7857V15.7411H11.125V13.7857H8.51786ZM5.25893 5.3125C5.25893 4.95206 5.55028 4.66071 5.91071 4.66071H9.82143C10.1819 4.66071 10.4732 4.95206 10.4732 5.3125C10.4732 5.67294 10.1819 5.96429 9.82143 5.96429H5.91071C5.55028 5.96429 5.25893 5.67294 5.25893 5.3125ZM14.3839 7.91964C14.3839 7.55921 14.0926 7.26786 13.7321 7.26786H5.91071C5.55028 7.26786 5.25893 7.55921 5.25893 7.91964C5.25893 8.28008 5.55028 8.57143 5.91071 8.57143H13.7321C14.0926 8.57143 14.3839 8.28008 14.3839 7.91964Z" fill="#5A5A75"/>
</g>
</svg>
