<svg width="18" height="18" viewBox="0 0 18 18" fill="none" xmlns="http://www.w3.org/2000/svg">
<g id="strip 1">
<g id="Union">
<path fill-rule="evenodd" clip-rule="evenodd" d="M7.45186 5.73999C7.5481 5.80991 7.67568 5.81913 7.78097 5.76377L8.98717 5.12957L10.1937 5.76378C10.299 5.81913 10.4266 5.8099 10.5228 5.73996C10.619 5.67003 10.6672 5.55152 10.6471 5.43428L10.4164 4.0909L11.3925 3.13964C11.4777 3.0566 11.5084 2.9324 11.4716 2.81925C11.4348 2.70611 11.337 2.62365 11.2193 2.60656L9.87133 2.41089L9.26788 1.17693C9.21544 1.0697 9.10651 1.00171 8.98714 1.00171C8.86778 1.00171 8.75884 1.0697 8.70641 1.17693L8.10295 2.41089L6.75499 2.60656C6.63726 2.62365 6.53944 2.70611 6.50268 2.81925C6.46591 2.9324 6.49657 3.0566 6.58177 3.13964L7.55789 4.09093L7.32752 5.43434C7.30742 5.55159 7.35562 5.67008 7.45186 5.73999ZM9.92391 4.91585L9.13252 4.49988C9.04149 4.45204 8.93274 4.45205 8.84171 4.49991L8.05057 4.91587L8.20169 4.03462C8.21907 3.93324 8.18545 3.82979 8.11179 3.758L7.47162 3.13411L8.35608 3.00572C8.45828 2.99088 8.54655 2.92651 8.59192 2.83374L8.98714 2.02557L9.38236 2.83374C9.42773 2.92651 9.51601 2.99088 9.61821 3.00572L10.5027 3.13411L9.8625 3.758C9.78882 3.82981 9.7552 3.93328 9.77261 4.03469L9.92391 4.91585Z" fill="#0D247D"/>
<path fill-rule="evenodd" clip-rule="evenodd" d="M8.93827 11.6255C7.58661 11.5921 6.50116 10.4859 6.50116 9.12623C6.50116 7.74548 7.62048 6.62616 9.00123 6.62616C10.382 6.62616 11.5013 7.74548 11.5013 9.12623C11.5013 10.4862 10.4154 11.5926 9.06334 11.6256C10.0739 11.6423 10.9875 12.0589 11.6519 12.7235C11.7714 12.8431 11.883 12.9707 11.9857 13.1056C12.5199 12.5761 13.2986 12.2542 14.0778 12.2501C13.0499 12.2412 12.2192 11.405 12.2192 10.3751C12.2192 9.33967 13.0588 8.50005 14.0943 8.50005C15.1297 8.50005 15.9693 9.33967 15.9693 10.3751C15.9693 11.4054 15.138 12.2419 14.1096 12.2501C15.6409 12.2591 16.9991 13.5004 16.9991 15.0626V15.6877C16.9991 15.8603 16.8592 16.0002 16.6866 16.0002H1.31274C1.14014 16.0002 1.00023 15.8603 1.00023 15.6877V15.0626C1.00023 13.5002 2.35879 12.2588 3.8904 12.2501C2.86208 12.2418 2.03079 11.4054 2.03079 10.3751C2.03079 9.33967 2.87042 8.50005 3.90585 8.50005C4.94128 8.50005 5.78091 9.33967 5.78091 10.3751C5.78091 11.4051 4.95004 12.2414 3.92207 12.2501C4.70132 12.2543 5.48003 12.5764 6.01414 13.1061C6.6873 12.2218 7.74487 11.6448 8.93827 11.6255ZM6.30403 13.7936C6.30944 13.7854 6.31445 13.777 6.31903 13.7684C6.8661 12.858 7.86229 12.2501 9.00012 12.2501C9.86334 12.2501 10.6442 12.5994 11.2098 13.1654C11.3877 13.3433 11.5443 13.5425 11.6755 13.7589C11.6829 13.774 11.6915 13.7886 11.7014 13.8025C11.9707 14.2642 12.1252 14.8012 12.1252 15.3751H5.87502C5.87502 14.7975 6.03151 14.2573 6.30403 13.7936ZM5.66904 13.6509C5.2591 13.1832 4.5868 12.8751 3.90657 12.8751C2.68343 12.8751 1.62525 13.8693 1.62525 15.0626V15.3751H5.25C5.25 14.7539 5.40133 14.1674 5.66904 13.6509ZM12.3309 13.6503C12.5988 14.1669 12.7502 14.7537 12.7502 15.3751H16.3741V15.0626C16.3741 13.8693 15.3159 12.8751 14.0928 12.8751C13.4129 12.8751 12.7409 13.1829 12.3309 13.6503ZM7.12617 9.12623C7.12617 10.1618 7.96566 11.0013 9.00123 11.0013C10.0368 11.0013 10.8763 10.1618 10.8763 9.12623C10.8763 8.09066 10.0368 7.25117 9.00123 7.25117C7.96566 7.25117 7.12617 8.09066 7.12617 9.12623ZM14.0943 11.6251C13.404 11.6251 12.8442 11.0653 12.8442 10.3751C12.8442 9.68486 13.404 9.12506 14.0943 9.12506C14.7845 9.12506 15.3443 9.68486 15.3443 10.3751C15.3443 11.0653 14.7845 11.6251 14.0943 11.6251ZM3.90585 11.6251C3.2156 11.6251 2.65581 11.0653 2.65581 10.3751C2.65581 9.68486 3.2156 9.12506 3.90585 9.12506C4.59609 9.12506 5.15589 9.68486 5.15589 10.3751C5.15589 11.0653 4.59609 11.6251 3.90585 11.6251Z" fill="#0D247D"/>
<path fill-rule="evenodd" clip-rule="evenodd" d="M13.4717 7.36309C13.3664 7.4184 13.2388 7.40915 13.1426 7.33922C13.0464 7.2693 12.9982 7.15082 13.0183 7.0336L13.1743 6.12421L12.5135 5.4798C12.4283 5.39676 12.3977 5.27257 12.4344 5.15945C12.4712 5.04633 12.569 4.96389 12.6867 4.94679L13.6001 4.81415L14.0087 3.98645C14.0613 3.87978 14.17 3.81225 14.2889 3.81226C14.4079 3.81228 14.5165 3.87984 14.5692 3.98653L14.9774 4.81416L15.8907 4.94679C16.0084 4.96389 16.1062 5.04633 16.143 5.15945C16.1798 5.27257 16.1491 5.39675 16.064 5.4798L15.4031 6.12421L15.5591 7.0336C15.5792 7.15083 15.531 7.26931 15.4348 7.33924C15.3386 7.40916 15.211 7.4184 15.1057 7.36307L14.2889 6.93381L13.4717 7.36309ZM13.8181 6.06798L13.7414 6.5154L14.1436 6.30413C14.2346 6.25632 14.3433 6.25633 14.4343 6.30415L14.8361 6.5153L14.7593 6.06798C14.742 5.96662 14.7755 5.8632 14.8492 5.7914L15.1743 5.47433L14.7249 5.40907C14.6231 5.39428 14.5351 5.33032 14.4896 5.23805L14.2888 4.83102L14.0879 5.23812C14.0423 5.33036 13.9543 5.39429 13.8525 5.40907L13.4031 5.47433L13.7283 5.7914C13.8019 5.8632 13.8355 5.96662 13.8181 6.06798Z" fill="#0D247D"/>
<path fill-rule="evenodd" clip-rule="evenodd" d="M2.51646 7.33922C2.61267 7.40915 2.74024 7.4184 2.84553 7.36309L3.6627 6.93381L4.47957 7.36307C4.58486 7.4184 4.71243 7.40916 4.80866 7.33924C4.90488 7.26931 4.95306 7.15083 4.93295 7.0336L4.77697 6.12421L5.43782 5.4798C5.52299 5.39676 5.55362 5.27257 5.51685 5.15945C5.48008 5.04633 5.38227 4.96389 5.26456 4.94679L4.35124 4.81416L3.94299 3.98653C3.89036 3.87984 3.78173 3.81228 3.66276 3.81226C3.5438 3.81225 3.43515 3.87978 3.38249 3.98645L2.97395 4.81415L2.06058 4.94679C1.94286 4.96389 1.84506 5.04633 1.80829 5.15945C1.77151 5.27257 1.80215 5.39676 1.88731 5.4798L2.54817 6.12421L2.39218 7.0336C2.37207 7.15082 2.42025 7.2693 2.51646 7.33922ZM3.11522 6.5154L3.19196 6.06798C3.20935 5.96662 3.17575 5.8632 3.10213 5.7914L2.77697 5.47433L3.22637 5.40907C3.32816 5.39429 3.41616 5.33036 3.46169 5.23812L3.66263 4.83102L3.86341 5.23805C3.90892 5.33033 3.99694 5.39428 4.09876 5.40907L4.54817 5.47433L4.22301 5.7914C4.14938 5.8632 4.11579 5.96662 4.13317 6.06798L4.2099 6.5153L3.8081 6.30415C3.7171 6.25633 3.6084 6.25632 3.51739 6.30413L3.11522 6.5154Z" fill="#0D247D"/>
<path fill-rule="evenodd" clip-rule="evenodd" d="M7.45186 5.73999C7.5481 5.80991 7.67568 5.81913 7.78097 5.76377L8.98717 5.12957L10.1937 5.76378C10.299 5.81913 10.4266 5.8099 10.5228 5.73996C10.619 5.67003 10.6672 5.55152 10.6471 5.43428L10.4164 4.0909L11.3925 3.13964C11.4777 3.0566 11.5084 2.9324 11.4716 2.81925C11.4348 2.70611 11.337 2.62365 11.2193 2.60656L9.87133 2.41089L9.26788 1.17693C9.21544 1.0697 9.10651 1.00171 8.98714 1.00171C8.86778 1.00171 8.75884 1.0697 8.70641 1.17693L8.10295 2.41089L6.75499 2.60656C6.63726 2.62365 6.53944 2.70611 6.50268 2.81925C6.46591 2.9324 6.49657 3.0566 6.58177 3.13964L7.55789 4.09093L7.32752 5.43434C7.30742 5.55159 7.35562 5.67008 7.45186 5.73999ZM9.92391 4.91585L9.13252 4.49988C9.04149 4.45204 8.93274 4.45205 8.84171 4.49991L8.05057 4.91587L8.20169 4.03462C8.21907 3.93324 8.18545 3.82979 8.11179 3.758L7.47162 3.13411L8.35608 3.00572C8.45828 2.99088 8.54655 2.92651 8.59192 2.83374L8.98714 2.02557L9.38236 2.83374C9.42773 2.92651 9.51601 2.99088 9.61821 3.00572L10.5027 3.13411L9.8625 3.758C9.78882 3.82981 9.7552 3.93328 9.77261 4.03469L9.92391 4.91585Z" stroke="#0D247D" stroke-width="0.2" stroke-miterlimit="10" stroke-linecap="round" stroke-linejoin="round"/>
<path fill-rule="evenodd" clip-rule="evenodd" d="M8.93827 11.6255C7.58661 11.5921 6.50116 10.4859 6.50116 9.12623C6.50116 7.74548 7.62048 6.62616 9.00123 6.62616C10.382 6.62616 11.5013 7.74548 11.5013 9.12623C11.5013 10.4862 10.4154 11.5926 9.06334 11.6256C10.0739 11.6423 10.9875 12.0589 11.6519 12.7235C11.7714 12.8431 11.883 12.9707 11.9857 13.1056C12.5199 12.5761 13.2986 12.2542 14.0778 12.2501C13.0499 12.2412 12.2192 11.405 12.2192 10.3751C12.2192 9.33967 13.0588 8.50005 14.0943 8.50005C15.1297 8.50005 15.9693 9.33967 15.9693 10.3751C15.9693 11.4054 15.138 12.2419 14.1096 12.2501C15.6409 12.2591 16.9991 13.5004 16.9991 15.0626V15.6877C16.9991 15.8603 16.8592 16.0002 16.6866 16.0002H1.31274C1.14014 16.0002 1.00023 15.8603 1.00023 15.6877V15.0626C1.00023 13.5002 2.35879 12.2588 3.8904 12.2501C2.86208 12.2418 2.03079 11.4054 2.03079 10.3751C2.03079 9.33967 2.87042 8.50005 3.90585 8.50005C4.94128 8.50005 5.78091 9.33967 5.78091 10.3751C5.78091 11.4051 4.95004 12.2414 3.92207 12.2501C4.70132 12.2543 5.48003 12.5764 6.01414 13.1061C6.6873 12.2218 7.74487 11.6448 8.93827 11.6255ZM6.30403 13.7936C6.30944 13.7854 6.31445 13.777 6.31903 13.7684C6.8661 12.858 7.86229 12.2501 9.00012 12.2501C9.86334 12.2501 10.6442 12.5994 11.2098 13.1654C11.3877 13.3433 11.5443 13.5425 11.6755 13.7589C11.6829 13.774 11.6915 13.7886 11.7014 13.8025C11.9707 14.2642 12.1252 14.8012 12.1252 15.3751H5.87502C5.87502 14.7975 6.03151 14.2573 6.30403 13.7936ZM5.66904 13.6509C5.2591 13.1832 4.5868 12.8751 3.90657 12.8751C2.68343 12.8751 1.62525 13.8693 1.62525 15.0626V15.3751H5.25C5.25 14.7539 5.40133 14.1674 5.66904 13.6509ZM12.3309 13.6503C12.5988 14.1669 12.7502 14.7537 12.7502 15.3751H16.3741V15.0626C16.3741 13.8693 15.3159 12.8751 14.0928 12.8751C13.4129 12.8751 12.7409 13.1829 12.3309 13.6503ZM7.12617 9.12623C7.12617 10.1618 7.96566 11.0013 9.00123 11.0013C10.0368 11.0013 10.8763 10.1618 10.8763 9.12623C10.8763 8.09066 10.0368 7.25117 9.00123 7.25117C7.96566 7.25117 7.12617 8.09066 7.12617 9.12623ZM14.0943 11.6251C13.404 11.6251 12.8442 11.0653 12.8442 10.3751C12.8442 9.68486 13.404 9.12506 14.0943 9.12506C14.7845 9.12506 15.3443 9.68486 15.3443 10.3751C15.3443 11.0653 14.7845 11.6251 14.0943 11.6251ZM3.90585 11.6251C3.2156 11.6251 2.65581 11.0653 2.65581 10.3751C2.65581 9.68486 3.2156 9.12506 3.90585 9.12506C4.59609 9.12506 5.15589 9.68486 5.15589 10.3751C5.15589 11.0653 4.59609 11.6251 3.90585 11.6251Z" stroke="#0D247D" stroke-width="0.2" stroke-miterlimit="10" stroke-linecap="round" stroke-linejoin="round"/>
<path fill-rule="evenodd" clip-rule="evenodd" d="M13.4717 7.36309C13.3664 7.4184 13.2388 7.40915 13.1426 7.33922C13.0464 7.2693 12.9982 7.15082 13.0183 7.0336L13.1743 6.12421L12.5135 5.4798C12.4283 5.39676 12.3977 5.27257 12.4344 5.15945C12.4712 5.04633 12.569 4.96389 12.6867 4.94679L13.6001 4.81415L14.0087 3.98645C14.0613 3.87978 14.17 3.81225 14.2889 3.81226C14.4079 3.81228 14.5165 3.87984 14.5692 3.98653L14.9774 4.81416L15.8907 4.94679C16.0084 4.96389 16.1062 5.04633 16.143 5.15945C16.1798 5.27257 16.1491 5.39675 16.064 5.4798L15.4031 6.12421L15.5591 7.0336C15.5792 7.15083 15.531 7.26931 15.4348 7.33924C15.3386 7.40916 15.211 7.4184 15.1057 7.36307L14.2889 6.93381L13.4717 7.36309ZM13.8181 6.06798L13.7414 6.5154L14.1436 6.30413C14.2346 6.25632 14.3433 6.25633 14.4343 6.30415L14.8361 6.5153L14.7593 6.06798C14.742 5.96662 14.7755 5.8632 14.8492 5.7914L15.1743 5.47433L14.7249 5.40907C14.6231 5.39428 14.5351 5.33032 14.4896 5.23805L14.2888 4.83102L14.0879 5.23812C14.0423 5.33036 13.9543 5.39429 13.8525 5.40907L13.4031 5.47433L13.7283 5.7914C13.8019 5.8632 13.8355 5.96662 13.8181 6.06798Z" stroke="#0D247D" stroke-width="0.2" stroke-miterlimit="10" stroke-linecap="round" stroke-linejoin="round"/>
<path fill-rule="evenodd" clip-rule="evenodd" d="M2.51646 7.33922C2.61267 7.40915 2.74024 7.4184 2.84553 7.36309L3.6627 6.93381L4.47957 7.36307C4.58486 7.4184 4.71243 7.40916 4.80866 7.33924C4.90488 7.26931 4.95306 7.15083 4.93295 7.0336L4.77697 6.12421L5.43782 5.4798C5.52299 5.39676 5.55362 5.27257 5.51685 5.15945C5.48008 5.04633 5.38227 4.96389 5.26456 4.94679L4.35124 4.81416L3.94299 3.98653C3.89036 3.87984 3.78173 3.81228 3.66276 3.81226C3.5438 3.81225 3.43515 3.87978 3.38249 3.98645L2.97395 4.81415L2.06058 4.94679C1.94286 4.96389 1.84506 5.04633 1.80829 5.15945C1.77151 5.27257 1.80215 5.39676 1.88731 5.4798L2.54817 6.12421L2.39218 7.0336C2.37207 7.15082 2.42025 7.2693 2.51646 7.33922ZM3.11522 6.5154L3.19196 6.06798C3.20935 5.96662 3.17575 5.8632 3.10213 5.7914L2.77697 5.47433L3.22637 5.40907C3.32816 5.39429 3.41616 5.33036 3.46169 5.23812L3.66263 4.83102L3.86341 5.23805C3.90892 5.33033 3.99694 5.39428 4.09876 5.40907L4.54817 5.47433L4.22301 5.7914C4.14938 5.8632 4.11579 5.96662 4.13317 6.06798L4.2099 6.5153L3.8081 6.30415C3.7171 6.25633 3.6084 6.25632 3.51739 6.30413L3.11522 6.5154Z" stroke="#0D247D" stroke-width="0.2" stroke-miterlimit="10" stroke-linecap="round" stroke-linejoin="round"/>
</g>
</g>
</svg>
